<?xml version="1.0" encoding="UTF-8" standalone="no"?>
<!-- Created with Inkscape (http://www.inkscape.org/) -->

<svg
   xmlns:dc="http://purl.org/dc/elements/1.1/"
   xmlns:cc="http://creativecommons.org/ns#"
   xmlns:rdf="http://www.w3.org/1999/02/22-rdf-syntax-ns#"
   xmlns:svg="http://www.w3.org/2000/svg"
   xmlns="http://www.w3.org/2000/svg"
   xmlns:sodipodi="http://sodipodi.sourceforge.net/DTD/sodipodi-0.dtd"
   xmlns:inkscape="http://www.inkscape.org/namespaces/inkscape"
   width="8.5in"
   height="11in"
   viewBox="0 0 765 990"
   id="svg4516"
   version="1.1"
   inkscape:version="0.91 r13725"
   sodipodi:docname="logos.svg">
  <defs
     id="defs4518" />
  <sodipodi:namedview
     id="base"
     pagecolor="#ffffff"
     bordercolor="#666666"
     borderopacity="1.0"
     inkscape:pageopacity="0.0"
     inkscape:pageshadow="2"
     inkscape:zoom="1.4"
     inkscape:cx="360.67165"
     inkscape:cy="712.08367"
     inkscape:document-units="px"
     inkscape:current-layer="layer4"
     showgrid="false"
     units="in"
     inkscape:window-width="1680"
     inkscape:window-height="1005"
     inkscape:window-x="0"
     inkscape:window-y="0"
     inkscape:window-maximized="0"
     inkscape:snap-global="false" />
  <metadata
     id="metadata4521">
    <rdf:RDF>
      <cc:Work
         rdf:about="">
        <dc:format>image/svg+xml</dc:format>
        <dc:type
           rdf:resource="http://purl.org/dc/dcmitype/StillImage" />
        <dc:title></dc:title>
      </cc:Work>
    </rdf:RDF>
  </metadata>
  <g
     inkscape:groupmode="layer"
     id="layer2"
     inkscape:label="Background"
     style="display:inline">
    <path
       inkscape:connector-curvature="0"
       id="path21443"
       d="M -20.350224,19.810536 -53.511308,165.60774 49.497523,370.91986 367.15841,370.99701 389.31991,80.039583 270.38377,33.32117 Z"
       style="color:#000000;clip-rule:nonzero;display:inline;overflow:visible;visibility:visible;opacity:1;isolation:auto;mix-blend-mode:normal;color-interpolation:sRGB;color-interpolation-filters:linearRGB;solid-color:#000000;solid-opacity:1;fill:#fcfc9f;fill-opacity:1;fill-rule:evenodd;stroke:none;stroke-width:5;stroke-linecap:butt;stroke-linejoin:miter;stroke-miterlimit:4;stroke-dasharray:none;stroke-dashoffset:0;stroke-opacity:1;color-rendering:auto;image-rendering:auto;shape-rendering:auto;text-rendering:auto;enable-background:accumulate"
       sodipodi:nodetypes="ccccccc" />
    <path
       inkscape:connector-curvature="0"
       id="path14722"
       d="m 400.8428,6.8236283 -48.7281,40.7972017 0,341.74068 369.09387,-4.20857 L 707.68042,274.17811 683.04486,36.720781 Z"
       style="color:#000000;clip-rule:nonzero;display:inline;overflow:visible;visibility:visible;opacity:1;isolation:auto;mix-blend-mode:normal;color-interpolation:sRGB;color-interpolation-filters:linearRGB;solid-color:#000000;solid-opacity:1;fill:#b2e399;fill-opacity:1;fill-rule:evenodd;stroke:none;stroke-width:5;stroke-linecap:butt;stroke-linejoin:miter;stroke-miterlimit:4;stroke-dasharray:none;stroke-dashoffset:0;stroke-opacity:1;color-rendering:auto;image-rendering:auto;shape-rendering:auto;text-rendering:auto;enable-background:accumulate"
       sodipodi:nodetypes="ccccccc" />
    <path
       style="color:#000000;clip-rule:nonzero;display:inline;overflow:visible;visibility:visible;opacity:1;isolation:auto;mix-blend-mode:normal;color-interpolation:sRGB;color-interpolation-filters:linearRGB;solid-color:#000000;solid-opacity:1;fill:#7db8ff;fill-opacity:1;fill-rule:evenodd;stroke:none;stroke-width:5;stroke-linecap:butt;stroke-linejoin:miter;stroke-miterlimit:4;stroke-dasharray:none;stroke-dashoffset:0;stroke-opacity:1;color-rendering:auto;image-rendering:auto;shape-rendering:auto;text-rendering:auto;enable-background:accumulate"
       d="m 318.10226,348.21289 15.48214,302.74465 141.94719,-4.00331 206.22072,-36.30069 38.35728,-93.89869 -12.59626,-107.08931 38.92012,-61.45265 z"
       id="path14724"
       inkscape:connector-curvature="0"
       sodipodi:nodetypes="cccccccc" />
    <path
       style="color:#000000;clip-rule:nonzero;display:inline;overflow:visible;visibility:visible;opacity:1;isolation:auto;mix-blend-mode:normal;color-interpolation:sRGB;color-interpolation-filters:linearRGB;solid-color:#000000;solid-opacity:1;fill:#fc7f87;fill-opacity:1;fill-rule:evenodd;stroke:none;stroke-width:5;stroke-linecap:butt;stroke-linejoin:miter;stroke-miterlimit:4;stroke-dasharray:none;stroke-dashoffset:0;stroke-opacity:1;color-rendering:auto;image-rendering:auto;shape-rendering:auto;text-rendering:auto;enable-background:accumulate"
       d="m 41.05188,348.21289 -99.054508,151.52957 68.865974,118.88355 219.863944,66.03655 121.38741,-36.11843 0,-300.33124 z"
       id="path8292"
       inkscape:connector-curvature="0"
       sodipodi:nodetypes="ccccccc" />
  </g>
  <g
     inkscape:label="Fuden"
     inkscape:groupmode="layer"
     id="layer1"
     transform="translate(0,-62.362205)"
     style="display:inline">
    <path
       sodipodi:nodetypes="ccccc"
       inkscape:connector-curvature="0"
       id="path6054"
       d="m -132.5,166.39791 7.67857,11.03572 7.67857,-11.03572 7.67858,11.03572 7.67857,-11.03572"
       style="color:#000000;clip-rule:nonzero;display:inline;overflow:visible;visibility:visible;opacity:1;isolation:auto;mix-blend-mode:normal;color-interpolation:sRGB;color-interpolation-filters:linearRGB;solid-color:#000000;solid-opacity:1;fill:none;fill-opacity:1;fill-rule:evenodd;stroke:#000000;stroke-width:3;stroke-linecap:butt;stroke-linejoin:miter;stroke-miterlimit:4;stroke-dasharray:none;stroke-dashoffset:0;stroke-opacity:1;color-rendering:auto;image-rendering:auto;shape-rendering:auto;text-rendering:auto;enable-background:accumulate" />
    <path
       sodipodi:nodetypes="ccccccc"
       inkscape:connector-curvature="0"
       id="path6668"
       d="m -172.5,168.05092 5.11905,8.87501 5.11905,-8.87501 5.11904,8.87501 5.11905,-8.87501 5.11905,8.87501 5.11905,-8.87501"
       style="color:#000000;clip-rule:nonzero;display:inline;overflow:visible;visibility:visible;opacity:1;isolation:auto;mix-blend-mode:normal;color-interpolation:sRGB;color-interpolation-filters:linearRGB;solid-color:#000000;solid-opacity:1;fill:none;fill-opacity:1;fill-rule:evenodd;stroke:#000000;stroke-width:4;stroke-linecap:round;stroke-linejoin:miter;stroke-miterlimit:4;stroke-dasharray:none;stroke-dashoffset:0;stroke-opacity:1;color-rendering:auto;image-rendering:auto;shape-rendering:auto;text-rendering:auto;enable-background:accumulate" />
    <g
       id="g7633"
       transform="matrix(1.1680362,0,0,1.1680362,27.387767,27.307411)">
      <path
         sodipodi:nodetypes="ccccc"
         inkscape:connector-curvature="0"
         id="path6045"
         d="m 223.01319,234.95045 -120.31209,0 44.33248,-69.9411 32.62286,0 z"
         inkscape:transform-center-y="-17.365555"
         style="opacity:1;fill:#ffffff;fill-opacity:1;fill-rule:nonzero;stroke:#00adf7;stroke-width:5.5;stroke-miterlimit:4;stroke-dasharray:none;stroke-dashoffset:0;stroke-opacity:1" />
      <g
         id="text6047"
         style="font-style:normal;font-weight:normal;font-size:15px;line-height:125%;font-family:sans-serif;letter-spacing:0px;word-spacing:0px;fill:#00adf7;fill-opacity:1;stroke:#00adf7;stroke-width:1px;stroke-linecap:butt;stroke-linejoin:miter;stroke-opacity:1">
        <path
           inkscape:connector-curvature="0"
           id="path7406"
           style="font-style:normal;font-variant:normal;font-weight:bold;font-stretch:normal;font-size:30px;font-family:'Hiragino Sans';-inkscape-font-specification:'Hiragino Sans Bold';fill:#00adf7;fill-opacity:1;stroke:#00adf7;stroke-opacity:1"
           d="m 147.52777,200.95285 c -1.2,2.1 -2.22,3.42 -3.96,5.22 -2.82,2.91 -5.67,5.01 -9.57,6.99 1.11,1.29 1.83,2.4 2.37,3.66 2.37,-1.41 3.9,-2.49 5.4,-3.66 1.86,-1.5 3.27,-2.88 4.29,-4.17 -0.03,1.38 -0.03,1.65 -0.03,2.49 l 0,8.19 c 0,1.47 -0.06,2.85 -0.21,4.05 l 4.5,0 c -0.15,-1.2 -0.21,-2.49 -0.21,-4.02 l 0,-11.34 c 2.85,3.39 5.94,5.91 10.29,8.49 0.75,-1.56 1.41,-2.64 2.37,-3.87 -2.22,-0.99 -3.96,-2.1 -6.15,-3.84 -1.71,-1.38 -2.88,-2.52 -4.32,-4.17 l -2.19,2.52 0,-3.12 c 1.23,-1.71 1.5,-2.16 2.16,-3.42 l 5.46,0 c 1.35,0 2.97,0.06 4.23,0.18 l 0,-4.14 c -0.99,0.15 -2.46,0.21 -4.32,0.21 l -18.69,0 c -1.62,0 -3.03,-0.06 -4.35,-0.21 l 0,4.14 c 1.35,-0.12 3.12,-0.18 4.47,-0.18 l 8.46,0 z" />
        <path
           id="path7408"
           style="font-style:normal;font-variant:normal;font-weight:bold;font-stretch:normal;font-size:30px;font-family:'Hiragino Sans';-inkscape-font-specification:'Hiragino Sans Bold';fill:#00adf7;fill-opacity:1;stroke:#00adf7;stroke-opacity:1"
           d="m 167.71777,203.14285 c 1.05,-0.15 2.1,-0.18 4.26,-0.18 l 12.51,0 c 2.01,0 2.88,0.03 4.26,0.18 l 0,-4.35 c -1.29,0.15 -2.19,0.18 -4.26,0.18 l -12.57,0 c -1.89,0 -3.03,-0.06 -4.2,-0.18 l 0,4.35 z m 23.94,13.05 c -1.53,0.15 -2.61,0.21 -4.65,0.21 l -17.49,0 c -2.16,0 -3.33,-0.06 -4.65,-0.21 l 0,4.44 c 1.56,-0.15 3.18,-0.21 4.8,-0.21 l 17.46,0 c 1.56,0 3.03,0.06 4.53,0.21 l 0,-4.44 z"
           inkscape:connector-curvature="0" />
      </g>
      <path
         sodipodi:nodetypes="cccc"
         inkscape:connector-curvature="0"
         id="path6052"
         d="m 147.5,168.05092 c 6.63114,11.54133 3.94553,10.90957 10.2381,0 6.63113,11.54133 3.94552,10.90957 10.23809,0 6.63114,11.54133 3.94553,10.90957 10.2381,0"
         style="color:#000000;clip-rule:nonzero;display:inline;overflow:visible;visibility:visible;opacity:1;isolation:auto;mix-blend-mode:normal;color-interpolation:sRGB;color-interpolation-filters:linearRGB;solid-color:#000000;solid-opacity:1;fill:none;fill-opacity:1;fill-rule:evenodd;stroke:#00adf7;stroke-width:4;stroke-linecap:round;stroke-linejoin:miter;stroke-miterlimit:4;stroke-dasharray:none;stroke-dashoffset:0;stroke-opacity:1;color-rendering:auto;image-rendering:auto;shape-rendering:auto;text-rendering:auto;enable-background:accumulate" />
      <text
         transform="scale(1.1818554,0.8461272)"
         sodipodi:linespacing="125%"
         id="text7266"
         y="307.20267"
         x="81.09623"
         style="font-style:normal;font-weight:normal;font-size:28.12179947px;line-height:125%;font-family:sans-serif;letter-spacing:0px;word-spacing:0px;fill:#00adf7;fill-opacity:1;stroke:none;stroke-width:1px;stroke-linecap:butt;stroke-linejoin:miter;stroke-opacity:1"
         xml:space="preserve"><tspan
           style="font-style:normal;font-variant:normal;font-weight:800;font-stretch:normal;font-family:'Hiragino Sans';-inkscape-font-specification:'Hiragino Sans Ultra-Bold';fill:#00adf7;fill-opacity:1"
           y="307.20267"
           x="81.09623"
           id="tspan7268"
           sodipodi:role="line">FUDEN</tspan></text>
      <text
         transform="scale(1.0476344,0.95453147)"
         sodipodi:linespacing="125%"
         id="text7270"
         y="290.901"
         x="92.032967"
         style="font-style:normal;font-weight:normal;font-size:15.71451569px;line-height:125%;font-family:sans-serif;letter-spacing:0px;word-spacing:0px;fill:#00adf7;fill-opacity:1;stroke:#00adf7;stroke-width:0.1;stroke-linecap:butt;stroke-linejoin:miter;stroke-miterlimit:4;stroke-dasharray:none;stroke-opacity:1"
         xml:space="preserve"><tspan
           style="font-style:normal;font-variant:normal;font-weight:600;font-stretch:normal;font-family:'Hiragino Mincho ProN';-inkscape-font-specification:'Hiragino Mincho ProN Semi-Bold';fill:#00adf7;fill-opacity:1;stroke:#00adf7;stroke-width:0.1;stroke-miterlimit:4;stroke-dasharray:none;stroke-opacity:1"
           y="290.901"
           x="92.032967"
           id="tspan7272"
           sodipodi:role="line">不二電鉄株式会社</tspan></text>
      <text
         transform="scale(0.87711351,1.1401033)"
         xml:space="preserve"
         style="font-style:normal;font-weight:normal;font-size:10.89901066px;line-height:125%;font-family:sans-serif;letter-spacing:0px;word-spacing:0px;fill:#00adf7;fill-opacity:1;stroke:none;stroke-width:1px;stroke-linecap:butt;stroke-linejoin:miter;stroke-opacity:1"
         x="113.15577"
         y="256.01172"
         id="text7289"
         sodipodi:linespacing="125%"><tspan
           sodipodi:role="line"
           id="tspan7291"
           x="113.15577"
           y="256.01172"
           style="font-style:normal;font-variant:normal;font-weight:600;font-stretch:normal;font-size:9.08250904px;font-family:'Hiragino Sans';-inkscape-font-specification:'Hiragino Sans Semi-Bold';fill:#00adf7;fill-opacity:1">Fuji Dentetsu Kabushikigaisha</tspan></text>
    </g>
  </g>
  <g
     inkscape:groupmode="layer"
     id="layer3"
     inkscape:label="NR"
     style="display:inline">
    <path
       inkscape:connector-curvature="0"
       id="path7352"
       d="m 788.75,98.75 23.03572,0 0,92.5 -23.03572,0 z"
       style="opacity:1;fill:#00adf7;fill-opacity:1;fill-rule:nonzero;stroke:none;stroke-width:0.1;stroke-linecap:round;stroke-miterlimit:4;stroke-dasharray:none;stroke-dashoffset:0;stroke-opacity:1" />
    <path
       sodipodi:nodetypes="ccccc"
       inkscape:connector-curvature="0"
       id="path7354"
       d="m 813.07151,98.749999 29,0 73.21428,92.500001 -29,0 z"
       style="opacity:1;fill:#00adf7;fill-opacity:1;fill-rule:nonzero;stroke:none;stroke-width:0.1;stroke-linecap:round;stroke-miterlimit:4;stroke-dasharray:none;stroke-dashoffset:0;stroke-opacity:1" />
    <ellipse
       ry="30.535713"
       rx="15.357142"
       cy="129.64285"
       cx="917.71429"
       id="ellipse7366"
       style="opacity:1;fill:#00adf7;fill-opacity:1;fill-rule:nonzero;stroke:none;stroke-width:0.1;stroke-linecap:round;stroke-miterlimit:4;stroke-dasharray:none;stroke-dashoffset:0;stroke-opacity:1" />
    <g
       id="g7646"
       transform="matrix(1.1323262,0,0,1.1323262,-104.78655,22.969363)">
      <path
         sodipodi:nodetypes="ccccccccccccccccccccccc"
         inkscape:connector-curvature="0"
         d="m 508.12527,112.38706 0,34.76614 18.88447,23.85776 0,-39.73943 42.39858,0 c 2.14787,0.33674 4.08736,2.98823 4.08784,6.14858 -0.002,3.17651 -1.95932,5.83418 -4.11987,6.14858 l -33.0284,0 c 11.78043,14.88368 23.56099,29.76726 35.34153,44.65085 l 23.77451,0 -20.39279,-25.76639 1.97647,0 c 6.95323,2.5e-4 14.73474,-11.20743 14.73487,-25.03304 -1.2e-4,-13.82562 -7.78163,-25.0333 -14.73487,-25.03305 z m -54.54623,0 0,75.83248 18.88447,0 0,-45.70924 36.17895,45.70924 23.77451,0 -59.95346,-75.74761 z"
         style="opacity:1;fill:#4a8e27;fill-opacity:1;fill-rule:nonzero;stroke:none;stroke-width:0.1;stroke-linecap:round;stroke-miterlimit:4;stroke-dasharray:none;stroke-dashoffset:0;stroke-opacity:1"
         id="path7433" />
      <text
         sodipodi:linespacing="125%"
         id="text7410"
         y="232.86566"
         x="451.21976"
         style="font-style:normal;font-weight:normal;font-size:19.20347023px;line-height:125%;font-family:sans-serif;letter-spacing:0px;word-spacing:0px;fill:#4a8e27;fill-opacity:1;stroke:none;stroke-width:1px;stroke-linecap:butt;stroke-linejoin:miter;stroke-opacity:1"
         xml:space="preserve"><tspan
           style="font-style:normal;font-variant:normal;font-weight:bold;font-stretch:normal;font-size:35.20635986px;font-family:'Hiragino Sans';-inkscape-font-specification:'Hiragino Sans Bold';fill:#4a8e27;fill-opacity:1"
           y="232.86566"
           x="451.21976"
           id="tspan7412"
           sodipodi:role="line">日本鉄道</tspan></text>
      <text
         sodipodi:linespacing="125%"
         id="text7438"
         y="223.66478"
         x="519.60352"
         style="font-style:normal;font-weight:normal;font-size:17.01696777px;line-height:125%;font-family:sans-serif;letter-spacing:0px;word-spacing:0px;display:inline;fill:#4a8e27;fill-opacity:1;stroke:none;stroke-width:1px;stroke-linecap:butt;stroke-linejoin:miter;stroke-opacity:1"
         xml:space="preserve"
         transform="scale(0.87711351,1.1401033)"><tspan
           style="font-style:normal;font-variant:normal;font-weight:800;font-stretch:normal;font-size:14.18080711px;font-family:'Hiragino Sans';-inkscape-font-specification:'Hiragino Sans Ultra-Bold';fill:#4a8e27;fill-opacity:1"
           y="223.66478"
           x="519.60352"
           id="tspan7440"
           sodipodi:role="line">NIPPON RAILWAYS</tspan></text>
    </g>
    <path
       d="m 508.75,-161.25 0,42.40752 23.03516,29.10156 0,-48.47392 55.41406,0 c 2.61996,0.41075 4.98574,3.64503 4.98633,7.5 -0.003,3.87469 -2.38997,7.1165 -5.02539,7.5 l -43.98438,0 c 14.3697,18.15502 28.73955,36.30992 43.10938,54.46484 l 29,0 -24.875,-31.42969 6.10742,0 c 8.48151,3.1e-4 17.35726,-13.67075 17.35742,-30.53515 -1.5e-4,-16.86441 -8.8759,-30.53546 -17.35742,-30.53516 z m -66.53516,0 0,92.5 23.03516,0 0,-55.75586 44.13086,55.75586 29,0 -73.13086,-92.39648 z"
       style="opacity:1;fill:#4a8e27;fill-opacity:1;fill-rule:nonzero;stroke:none;stroke-width:0.1;stroke-linecap:round;stroke-miterlimit:4;stroke-dasharray:none;stroke-dashoffset:0;stroke-opacity:1"
       id="path7444"
       inkscape:connector-curvature="0" />
  </g>
  <g
     inkscape:groupmode="layer"
     id="layer4"
     inkscape:label="Bokyu"
     style="display:inline">
    <path
       style="color:#000000;clip-rule:nonzero;display:inline;overflow:visible;visibility:visible;opacity:1;isolation:auto;mix-blend-mode:normal;color-interpolation:sRGB;color-interpolation-filters:linearRGB;solid-color:#000000;solid-opacity:1;fill:none;fill-opacity:1;fill-rule:evenodd;stroke:#000000;stroke-width:2;stroke-linecap:butt;stroke-linejoin:miter;stroke-miterlimit:4;stroke-dasharray:none;stroke-dashoffset:0;stroke-opacity:1;color-rendering:auto;image-rendering:auto;shape-rendering:auto;text-rendering:auto;enable-background:accumulate"
       d="M -51.43039,348.28029 -22.64105,312.2936"
       id="path7559"
       inkscape:connector-curvature="0" />
    <path
       sodipodi:nodetypes="sscscssccscscccscccsccss"
       inkscape:connector-curvature="0"
       id="path7557"
       d="m -191.44815,350.70378 c 0,0 -11.97953,0.65752 -14.53572,4.46428 -0.93148,1.38719 -0.17857,4.82143 -0.17857,4.82143 0,0 -4.92014,4.19893 -5.35714,7.14286 -0.2046,1.37831 1.42857,3.92857 1.42857,3.92857 0,0 4.68606,-5.321 7.85714,-6.60714 13.73882,-5.57224 53.73816,-4.9271 74.82143,-3.39286 9.91797,0.72174 21.60714,3.39286 21.60714,3.39286 6.60714,-9.46429 16.07143,-15.53572 16.07143,-15.53572 0,0 -10.25068,1.53595 -15.42586,1.42858 -20.9596,-0.43487 -48.14557,-4.28572 -67.25271,-1.42858 0,0 1.9642,-3.85762 4.57143,-4.35714 17.25034,-3.305 51.03571,0.54722 51.03571,0.54722 l 6.35,-8.4758 c 0,0 -40.70713,-2.85714 -54.63571,0 0,0 2.54665,-4.23754 4.21428,-4.53572 15.49487,-2.77052 54.09286,0.0357 54.09286,0.0357 l 6.35,-7.67857 c 0,0 -40.94286,-2.96432 -57.55,0.0714 0,0 2.00098,-4.01555 5.85714,-4.53571 20.66189,-2.78709 55.00714,0 55.00714,0 l 7.63572,-9.64286 c 0,0 -55.91684,-4.04225 -71.60714,0 -12.00971,3.09403 -24.41138,40.46411 -30.35714,40.3572 z"
       style="color:#000000;clip-rule:nonzero;display:inline;overflow:visible;visibility:visible;opacity:1;isolation:auto;mix-blend-mode:normal;color-interpolation:sRGB;color-interpolation-filters:linearRGB;solid-color:#000000;solid-opacity:1;fill:#404040;fill-opacity:1;fill-rule:evenodd;stroke:none;stroke-width:2;stroke-linecap:butt;stroke-linejoin:round;stroke-miterlimit:4;stroke-dasharray:none;stroke-dashoffset:0;stroke-opacity:1;color-rendering:auto;image-rendering:auto;shape-rendering:auto;text-rendering:auto;enable-background:accumulate" />
    <path
       sodipodi:nodetypes="scscssccscssccscccsccsss"
       inkscape:connector-curvature="0"
       id="path7561"
       d="m -142.34237,351.24203 c -1.40649,0.90207 -2.83022,4.36865 -2.83022,4.36865 0,0 -2.71584,0.22841 -5.18628,2.94399 -1.95626,2.15037 0.5204,5.4961 0.5204,5.4961 0.92433,-2.81343 5.05221,-2.5258 8.36221,-2.79654 17.23074,-1.40946 52.92566,-0.19025 74.06382,0 10.04424,0.0904 20.84953,0 20.84953,0 11.27909,-2.5195 13.29351,-9.05317 15.81889,-13.59886 -3.66181,1.26269 -8.86691,1.81016 -14.16317,1.93366 -21.61139,0.50393 -47.6405,-1.129 -67.50525,-0.0396 0,0 1.16266,-2.20067 3.81381,-2.33683 17.33964,-0.89057 45.3011,-0.0783 48.00525,-0.58918 5.78377,-1.0926 8.11778,-5.44534 11.33764,-9.99103 0,0 -36.49878,-0.93247 -55.58273,0 0,0 1.38734,-2.27931 3.07786,-2.38915 15.29463,-0.99378 54.5348,0.0357 54.5348,0.0357 l 7.80209,-9.82514 c -6.52901,-0.11095 -39.57555,-0.44529 -57.9288,0.45021 0,0 0.83724,-2.14591 4.72072,-2.38914 19.22697,-1.20424 55.07026,-0.37881 55.07026,-0.37881 l 9.46663,-11.9157 c -5.80838,-0.37881 -63.36672,-2.14821 -71.85968,0.12627 -11.9797,3.20826 -25.20357,38.15248 -31.02052,39.67177 -3.11738,0.81421 -6.57522,-1.84982 -11.36726,1.22363 z"
       style="color:#000000;clip-rule:nonzero;display:inline;overflow:visible;visibility:visible;opacity:1;isolation:auto;mix-blend-mode:normal;color-interpolation:sRGB;color-interpolation-filters:linearRGB;solid-color:#000000;solid-opacity:1;fill:#a9a9a9;fill-opacity:1;fill-rule:evenodd;stroke:none;stroke-width:2;stroke-linecap:butt;stroke-linejoin:round;stroke-miterlimit:4;stroke-dasharray:none;stroke-dashoffset:0;stroke-opacity:1;color-rendering:auto;image-rendering:auto;shape-rendering:auto;text-rendering:auto;enable-background:accumulate" />
    <g
       id="g7653"
       transform="translate(23.968018,-26.517358)">
      <text
         sodipodi:linespacing="125%"
         id="text7449"
         y="542.32635"
         x="99.564308"
         style="font-style:normal;font-weight:normal;font-size:22.86868095px;line-height:125%;font-family:sans-serif;letter-spacing:0px;word-spacing:0px;fill:#000000;fill-opacity:1;stroke:none;stroke-width:1px;stroke-linecap:butt;stroke-linejoin:miter;stroke-opacity:1"
         xml:space="preserve"><tspan
           style="font-style:normal;font-variant:normal;font-weight:300;font-stretch:normal;font-family:'Hiragino Mincho ProN';-inkscape-font-specification:'Hiragino Mincho ProN Light'"
           y="542.32635"
           x="99.564308"
           id="tspan7451"
           sodipodi:role="line">暴走急行電気鉄道</tspan></text>
      <path
         sodipodi:nodetypes="scscssccscssccscccsccsss"
         inkscape:connector-curvature="0"
         id="path7555"
         d="m 107.30567,488.8686 c -2.29002,1.46874 -4.60812,7.11296 -4.60812,7.11296 0,0 -4.421875,0.37189 -8.444195,4.79335 -3.18515,3.5012 0.8473,8.94866 0.8473,8.94866 1.50498,-4.58078 8.225915,-4.11247 13.615195,-4.55328 28.05479,-2.29486 86.17262,-0.30976 120.58939,0 16.35385,0.14719 33.94683,0 33.94683,0 18.36442,-4.10221 21.64426,-14.74021 25.75604,-22.14142 -5.9621,2.05589 -14.43695,2.94727 -23.06022,3.14835 -35.18728,0.82049 -77.56741,-1.83822 -109.91084,-0.0645 0,0 1.89302,-3.58309 6.20957,-3.80478 28.23209,-1.45001 73.75844,-0.12749 78.16129,-0.95929 9.41703,-1.77896 13.73119,-8.86601 18.97371,-16.26722 0,0 -55.8619,-1.51823 -86.93405,0 0,0 2.25885,-3.71113 5.01132,-3.88997 24.90244,-1.61806 84.71386,0.0581 84.71386,0.0581 l 12.70322,-15.99711 c -10.63041,-0.18065 -57.06806,-0.72502 -86.95049,0.73302 0,0 1.36318,-3.49393 7.68619,-3.88995 31.30501,-1.96073 82.29627,-0.61678 82.29627,-0.61678 l 15.4134,-19.40093 c -9.4571,-0.61677 -96.49986,-4.14222 -110.13901,0.20559 -14.56245,4.64215 -47.89764,62.11919 -57.36869,64.59287 -5.07566,1.32568 -10.70566,-3.01184 -18.50797,1.99229 z"
         style="color:#000000;clip-rule:nonzero;display:inline;overflow:visible;visibility:visible;opacity:1;isolation:auto;mix-blend-mode:normal;color-interpolation:sRGB;color-interpolation-filters:linearRGB;solid-color:#000000;solid-opacity:1;fill:#ffffff;fill-opacity:1;fill-rule:evenodd;stroke:none;stroke-width:2;stroke-linecap:butt;stroke-linejoin:round;stroke-miterlimit:4;stroke-dasharray:none;stroke-dashoffset:0;stroke-opacity:1;color-rendering:auto;image-rendering:auto;shape-rendering:auto;text-rendering:auto;enable-background:accumulate" />
      <g
         id="text7453"
         style="font-style:normal;font-weight:normal;font-size:23.8741169px;line-height:125%;font-family:sans-serif;letter-spacing:2.72207046px;word-spacing:0px;fill:#000000;fill-opacity:1;stroke:#000000;stroke-width:2.6818428;stroke-linecap:butt;stroke-linejoin:miter;stroke-miterlimit:4;stroke-dasharray:none;stroke-opacity:1"
         transform="matrix(1.0723821,0,0,0.93250344,-1.1076526,100)">
        <path
           inkscape:connector-curvature="0"
           id="path7568"
           style="font-style:normal;font-variant:normal;font-weight:normal;font-stretch:normal;font-size:39.79019165px;font-family:'Bangla MN';-inkscape-font-specification:'Bangla MN';letter-spacing:2.72207046px;stroke:#000000;stroke-width:2.6818428;stroke-miterlimit:4;stroke-dasharray:none;stroke-opacity:1"
           d="m 104.38198,374.43713 11.80442,0 q 2.3432,0 4.2885,0.53054 1.96741,0.50843 3.36006,1.45897 1.41477,0.95054 2.18846,2.27688 0.7737,1.32634 0.7737,2.91795 0,1.21581 -0.24316,2.16635 -0.24316,0.95055 -0.86212,1.76846 -0.61896,0.7958 -1.65793,1.52529 -1.01686,0.70738 -2.58636,1.45897 l 0,0.0884 q 1.5695,0.24317 2.82953,0.84002 1.26002,0.59685 2.14425,1.52529 0.90633,0.90633 1.39265,2.14425 0.48633,1.21581 0.48633,2.67478 0,1.65793 -0.72949,3.1169 -0.70738,1.43687 -2.05583,2.52005 -1.32634,1.06107 -3.22742,1.68003 -1.87898,0.61896 -4.22218,0.61896 l -13.68341,0 0,-29.31211 z m 4.92956,13.19708 6.27801,0 q 1.48108,0 2.63058,-0.42001 1.14949,-0.42001 1.94529,-1.14949 0.79581,-0.7516 1.19371,-1.76846 0.42001,-1.03896 0.42001,-2.23267 0,-1.28213 -0.48633,-2.32109 -0.48632,-1.06107 -1.52529,-1.81267 -1.01686,-0.75159 -2.60847,-1.14949 -1.5695,-0.3979 -3.78006,-0.3979 l -4.06745,0 0,11.25178 z m 0,13.97078 5.32747,0 q 2.14425,0 3.71375,-0.3979 1.59161,-0.42001 2.60847,-1.1495 1.03896,-0.75159 1.52529,-1.79056 0.50843,-1.03896 0.50843,-2.27688 0,-1.39266 -0.44211,-2.58636 -0.44212,-1.19371 -1.45898,-2.05583 -0.99475,-0.88423 -2.63057,-1.39266 -1.61372,-0.50843 -3.97902,-0.50843 l -5.17273,0 0,12.15812 z" />
        <path
           inkscape:connector-curvature="0"
           id="path7570"
           style="font-style:normal;font-variant:normal;font-weight:normal;font-stretch:normal;font-size:39.79019165px;font-family:'Bangla MN';-inkscape-font-specification:'Bangla MN';letter-spacing:2.72207046px;stroke:#000000;stroke-width:2.6818428;stroke-miterlimit:4;stroke-dasharray:none;stroke-opacity:1"
           d="m 149.52447,404.43451 q -3.40428,0 -6.36644,-1.21581 -2.94005,-1.21581 -5.12851,-3.31585 -2.16635,-2.12214 -3.42638,-4.92956 -1.23791,-2.82953 -1.23791,-6.03485 0,-2.10003 0.55264,-4.04533 0.57474,-1.9453 1.61371,-3.62533 1.03897,-1.68003 2.49794,-3.05058 1.48108,-1.39266 3.27164,-2.36531 1.79056,-0.99475 3.86849,-1.52529 2.10004,-0.55264 4.35482,-0.55264 2.27688,0 4.35481,0.55264 2.07793,0.53054 3.86849,1.52529 1.81267,0.97265 3.27164,2.36531 1.45897,1.37055 2.49794,3.05058 1.06107,1.68003 1.61371,3.62533 0.57475,1.9453 0.57475,4.04533 0,2.14425 -0.57475,4.11166 -0.55264,1.9674 -1.61371,3.69164 -1.03897,1.72424 -2.49794,3.13901 -1.45897,1.41476 -3.27164,2.43162 -1.79056,1.01686 -3.86849,1.5695 -2.07793,0.55264 -4.35481,0.55264 z m 0,-1.45897 q 2.52004,0 4.44323,-1.03897 1.9453,-1.06107 3.27164,-2.94005 1.32634,-1.87898 1.98951,-4.44324 0.68528,-2.56426 0.68528,-5.61484 0,-3.02847 -0.68528,-5.54852 -0.66317,-2.52004 -1.98951,-4.33271 -1.32634,-1.83477 -3.27164,-2.82952 -1.92319,-1.01686 -4.44323,-1.01686 -2.56426,0 -4.50956,1.01686 -1.92319,0.99475 -3.24953,2.82952 -1.30424,1.81267 -1.96741,4.33271 -0.66317,2.52005 -0.66317,5.54852 0,3.05058 0.66317,5.61484 0.66317,2.56426 1.96741,4.44324 1.32634,1.87898 3.24953,2.94005 1.9453,1.03897 4.50956,1.03897 z" />
        <path
           inkscape:connector-curvature="0"
           id="path7572"
           style="font-style:normal;font-variant:normal;font-weight:normal;font-stretch:normal;font-size:39.79019165px;font-family:'Bangla MN';-inkscape-font-specification:'Bangla MN';letter-spacing:2.72207046px;stroke:#000000;stroke-width:2.6818428;stroke-miterlimit:4;stroke-dasharray:none;stroke-opacity:1"
           d="m 171.76563,374.43713 4.92956,0 0,12.99813 15.42975,-12.99813 3.20532,0 -14.63394,12.33496 18.56875,16.97715 -6.27801,0 -16.29187,-14.87711 0,14.87711 -4.92956,0 0,-29.31211 z" />
        <path
           inkscape:connector-curvature="0"
           id="path7574"
           style="font-style:normal;font-variant:normal;font-weight:normal;font-stretch:normal;font-size:39.79019165px;font-family:'Bangla MN';-inkscape-font-specification:'Bangla MN';letter-spacing:2.72207046px;stroke:#000000;stroke-width:2.6818428;stroke-miterlimit:4;stroke-dasharray:none;stroke-opacity:1"
           d="m 207.06764,374.43713 10.16861,14.855 10.12439,-14.855 2.67479,0 -11.36231,16.64556 0,12.66655 -4.92957,0 0,-12.20233 -11.716,-17.10978 5.04009,0 z" />
        <path
           inkscape:connector-curvature="0"
           id="path7576"
           style="font-style:normal;font-variant:normal;font-weight:normal;font-stretch:normal;font-size:39.79019165px;font-family:'Bangla MN';-inkscape-font-specification:'Bangla MN';letter-spacing:2.72207046px;stroke:#000000;stroke-width:2.6818428;stroke-miterlimit:4;stroke-dasharray:none;stroke-opacity:1"
           d="m 236.37523,374.43713 4.92956,0 0,19.03297 q 0,1.87899 0.64106,3.53691 0.64107,1.63582 1.83477,2.87374 1.19371,1.23791 2.87374,1.9674 1.70214,0.70738 3.78007,0.70738 2.10004,0 3.78007,-0.70738 1.68003,-0.72949 2.85163,-1.9674 1.1937,-1.23792 1.81266,-2.87374 0.64107,-1.65792 0.64107,-3.53691 l 0,-19.03297 2.16635,0 0,19.03297 q 0,2.25478 -0.72949,4.24429 -0.72948,1.98951 -2.29898,3.4927 -1.5474,1.48108 -3.97902,2.3653 -2.43163,0.86212 -5.8359,0.86212 -3.02847,0 -5.37167,-0.86212 -2.3211,-0.88422 -3.91271,-2.38741 -1.5695,-1.50318 -2.38741,-3.5148 -0.7958,-2.03372 -0.7958,-4.33271 l 0,-18.90034 z" />
      </g>
      <text
         transform="scale(0.87124505,1.1477827)"
         xml:space="preserve"
         style="font-style:normal;font-weight:normal;font-size:11.68454266px;line-height:125%;font-family:sans-serif;letter-spacing:0px;word-spacing:0px;fill:#000000;fill-opacity:1;stroke:none;stroke-width:1px;stroke-linecap:butt;stroke-linejoin:miter;stroke-opacity:1"
         x="115.03334"
         y="488.09793"
         id="text7563"
         sodipodi:linespacing="125%"><tspan
           style="font-style:normal;font-variant:normal;font-weight:normal;font-stretch:normal;font-family:'Bangla MN';-inkscape-font-specification:'Bangla MN'"
           sodipodi:role="line"
           id="tspan7565"
           x="115.03334"
           y="488.09793">Boutou Kyuukou Electric Railway</tspan></text>
    </g>
  </g>
  <g
     inkscape:groupmode="layer"
     id="layer5"
     inkscape:label="Keitetsu"
     style="display:inline">
    <rect
       y="387.57147"
       x="819.57153"
       height="11.071428"
       width="5.7142859"
       id="rect7470"
       style="opacity:1;fill:#4a8e27;fill-opacity:1;fill-rule:nonzero;stroke:none;stroke-width:0.1;stroke-linecap:round;stroke-miterlimit:4;stroke-dasharray:none;stroke-dashoffset:0;stroke-opacity:1" />
    <rect
       y="376.49994"
       x="845.57153"
       height="11.071428"
       width="5.7142859"
       id="rect7478"
       style="opacity:1;fill:#276c8e;fill-opacity:1;fill-rule:nonzero;stroke:none;stroke-width:0.1;stroke-linecap:round;stroke-miterlimit:4;stroke-dasharray:none;stroke-dashoffset:0;stroke-opacity:1" />
    <rect
       style="opacity:1;fill:#276c8e;fill-opacity:1;fill-rule:nonzero;stroke:none;stroke-width:0.1;stroke-linecap:round;stroke-miterlimit:4;stroke-dasharray:none;stroke-dashoffset:0;stroke-opacity:1"
       id="rect7480"
       width="5.7142859"
       height="11.071428"
       x="845.57153"
       y="387.57147" />
    <g
       transform="translate(452,0)"
       id="g7513">
      <path
         transform="matrix(1,0,-0.57874702,0.81550714,0,0)"
         style="opacity:1;fill:#4a8e27;fill-opacity:1;fill-rule:nonzero;stroke:none;stroke-width:0.1;stroke-linecap:round;stroke-miterlimit:4;stroke-dasharray:none;stroke-dashoffset:0;stroke-opacity:1"
         d="m 652.69366,461.67584 7.71429,0 0,13.57613 -7.71429,0 z"
         id="path7515"
         inkscape:connector-curvature="0"
         sodipodi:nodetypes="ccccc" />
      <path
         transform="matrix(1,0,-0.57874702,-0.81550714,0,0)"
         style="opacity:1;fill:#4a8e27;fill-opacity:1;fill-rule:nonzero;stroke:none;stroke-width:0.1;stroke-linecap:round;stroke-miterlimit:4;stroke-dasharray:none;stroke-dashoffset:0;stroke-opacity:1"
         d="m 102.59223,-488.82822 7.71429,0 0,13.57613 -7.71429,0 z"
         id="path7517"
         inkscape:connector-curvature="0"
         sodipodi:nodetypes="ccccc" />
    </g>
    <g
       id="g7666"
       transform="translate(-50.484609,-52.361373)">
      <g
         transform="matrix(1.5765005,0,-0.6293046,1.5765005,15.637518,-118.89715)"
         id="g7526">
        <path
           sodipodi:nodetypes="ccccc"
           inkscape:connector-curvature="0"
           id="rect7578"
           d="m 416.94303,368.90633 139.54481,0 0.11974,36.09405 -139.54587,-0.32037 z"
           style="opacity:1;fill:#ffffff;fill-opacity:1;fill-rule:nonzero;stroke:none;stroke-width:2;stroke-linecap:round;stroke-linejoin:round;stroke-miterlimit:4;stroke-dasharray:none;stroke-dashoffset:0;stroke-opacity:1" />
        <g
           transform="translate(12.686326,0)"
           id="g7581">
          <text
             sodipodi:linespacing="125%"
             id="text7458"
             y="397.46265"
             x="436.57834"
             style="font-style:normal;font-weight:normal;font-size:15px;line-height:125%;font-family:sans-serif;letter-spacing:0px;word-spacing:0px;fill:#ddecff;fill-opacity:1;stroke:#0058c1;stroke-width:1px;stroke-linecap:butt;stroke-linejoin:miter;stroke-opacity:1"
             xml:space="preserve"><tspan
               style="font-style:normal;font-variant:normal;font-weight:bold;font-stretch:normal;font-size:25px;font-family:Futura;-inkscape-font-specification:'Futura Bold';fill:#ddecff;fill-opacity:1;stroke:#0058c1;stroke-opacity:1"
               y="397.46265"
               x="436.57834"
               id="tspan7460"
               sodipodi:role="line">EITETSU</tspan></text>
          <path
             inkscape:connector-curvature="0"
             d="m 428.87019,373.78571 -9.02803,12.72181 9.02803,12.71957 8.86419,0 -9.02802,-12.71957 9.02802,-12.72181 z m -14.55189,0 0,25.44138 7.91832,0 0,-6.10845 -4.87112,-7.05881 4.69241,-6.61336 0.17871,-5.66076 z"
             style="opacity:1;fill:#0058c1;fill-opacity:1;fill-rule:nonzero;stroke:none;stroke-width:1.26863265;stroke-linecap:round;stroke-miterlimit:4;stroke-dasharray:none;stroke-dashoffset:0;stroke-opacity:1"
             id="path7522"
             sodipodi:nodetypes="ccccccccccccccc" />
        </g>
      </g>
      <text
         transform="matrix(1,0,-0.24425105,1,0,0)"
         xml:space="preserve"
         style="font-style:normal;font-weight:normal;font-size:17.66405487px;line-height:125%;font-family:sans-serif;letter-spacing:0px;word-spacing:0px;fill:#0058c1;fill-opacity:1;stroke:none;stroke-width:1px;stroke-linecap:butt;stroke-linejoin:miter;stroke-opacity:1"
         x="585.0752"
         y="553.67218"
         id="text7539"
         sodipodi:linespacing="125%"><tspan
           style="font-style:normal;font-variant:normal;font-weight:900;font-stretch:normal;font-family:'Hiragino Sans';-inkscape-font-specification:'Hiragino Sans Heavy';fill:#0058c1;fill-opacity:1"
           sodipodi:role="line"
           id="tspan7541"
           x="585.0752"
           y="553.67218">京戸地下鉄道株式会社</tspan></text>
      <text
         transform="matrix(1,0,-0.23549365,1,0,0)"
         sodipodi:linespacing="125%"
         id="text7545"
         y="572.68872"
         x="584.67944"
         style="font-style:normal;font-weight:normal;font-size:15.72362614px;line-height:125%;font-family:sans-serif;letter-spacing:0px;word-spacing:0px;fill:#0058c1;fill-opacity:1;stroke:none;stroke-width:1px;stroke-linecap:butt;stroke-linejoin:miter;stroke-opacity:1"
         xml:space="preserve"><tspan
           style="font-style:normal;font-variant:normal;font-weight:800;font-stretch:condensed;font-family:Futura;-inkscape-font-specification:'Futura Ultra-Bold Condensed';fill:#0058c1;fill-opacity:1"
           y="572.68872"
           x="584.67944"
           id="tspan7547"
           sodipodi:role="line">K<tspan
   id="tspan7549"
   style="font-style:normal;font-variant:normal;font-weight:800;font-stretch:condensed;font-size:13.10302162px;font-family:Futura;-inkscape-font-specification:'Futura Ultra-Bold Condensed';fill:#0058c1;fill-opacity:1">EIDO</tspan> S<tspan
   id="tspan7551"
   style="font-style:normal;font-variant:normal;font-weight:800;font-stretch:condensed;font-size:13.10302162px;font-family:Futura;-inkscape-font-specification:'Futura Ultra-Bold Condensed';fill:#0058c1;fill-opacity:1">UBWAY</tspan> C<tspan
   id="tspan7553"
   style="font-style:normal;font-variant:normal;font-weight:800;font-stretch:condensed;font-size:13.10302162px;font-family:Futura;-inkscape-font-specification:'Futura Ultra-Bold Condensed';fill:#0058c1;fill-opacity:1">ORPORATION</tspan></tspan></text>
    </g>
  </g>
  <g
     inkscape:groupmode="layer"
     id="layer8"
     inkscape:label="Selection"
     style="display:inline">
    <rect
       style="opacity:1;fill:none;fill-opacity:0.42180098;fill-rule:nonzero;stroke:#0058c1;stroke-width:2;stroke-linecap:round;stroke-linejoin:round;stroke-miterlimit:4;stroke-dasharray:none;stroke-dashoffset:0;stroke-opacity:1"
       id="rect7709"
       width="545.71436"
       height="467.14282"
       x="80"
       y="113.57143"
       inkscape:export-filename="/Users/garykac/projects/github/shinjuku/design-notes/logos.png"
       inkscape:export-xdpi="300"
       inkscape:export-ydpi="300" />
    <rect
       style="opacity:1;fill:#5fa6ff;fill-opacity:0.42180098;fill-rule:nonzero;stroke:none;stroke-width:2;stroke-linecap:round;stroke-linejoin:round;stroke-miterlimit:4;stroke-dasharray:none;stroke-dashoffset:0;stroke-opacity:1"
       id="rect7711"
       width="66.428574"
       height="234.28572"
       x="8.5714283"
       y="114.28571" />
    <rect
       y="348.28571"
       x="8.5714283"
       height="234.28572"
       width="66.428574"
       id="rect7713"
       style="opacity:1;fill:#5fa6ff;fill-opacity:0.42180098;fill-rule:nonzero;stroke:none;stroke-width:2;stroke-linecap:round;stroke-linejoin:round;stroke-miterlimit:4;stroke-dasharray:none;stroke-dashoffset:0;stroke-opacity:1" />
    <rect
       style="opacity:1;fill:#5fa6ff;fill-opacity:0.42180098;fill-rule:nonzero;stroke:none;stroke-width:2;stroke-linecap:round;stroke-linejoin:round;stroke-miterlimit:4;stroke-dasharray:none;stroke-dashoffset:0;stroke-opacity:1"
       id="rect7715"
       width="271.42856"
       height="45"
       x="81.428574"
       y="587.14288" />
    <rect
       y="587.14288"
       x="353.42859"
       height="45"
       width="271.42856"
       id="rect7717"
       style="opacity:1;fill:#5fa6ff;fill-opacity:0.42180098;fill-rule:nonzero;stroke:none;stroke-width:2;stroke-linecap:round;stroke-linejoin:round;stroke-miterlimit:4;stroke-dasharray:none;stroke-dashoffset:0;stroke-opacity:1" />
  </g>
</svg>
