<?xml version="1.0" encoding="UTF-8" standalone="no"?>
<!-- Created with Inkscape (http://www.inkscape.org/) -->

<svg
   xmlns:dc="http://purl.org/dc/elements/1.1/"
   xmlns:cc="http://creativecommons.org/ns#"
   xmlns:rdf="http://www.w3.org/1999/02/22-rdf-syntax-ns#"
   xmlns:svg="http://www.w3.org/2000/svg"
   xmlns="http://www.w3.org/2000/svg"
   xmlns:sodipodi="http://sodipodi.sourceforge.net/DTD/sodipodi-0.dtd"
   xmlns:inkscape="http://www.inkscape.org/namespaces/inkscape"
   width="60mm"
   height="80mm"
   viewBox="0 0 60 80"
   version="1.1"
   id="svg1197"
   inkscape:version="0.92.5 (2060ec1f9f, 2020-04-08)"
   sodipodi:docname="hidden.svg">
  <defs
     id="defs1191" />
  <sodipodi:namedview
     id="base"
     pagecolor="#ffffff"
     bordercolor="#666666"
     borderopacity="1.0"
     inkscape:pageopacity="0.0"
     inkscape:pageshadow="2"
     inkscape:zoom="2.8"
     inkscape:cx="40.833199"
     inkscape:cy="128.50124"
     inkscape:document-units="mm"
     inkscape:current-layer="layer1"
     showgrid="false"
     inkscape:window-width="2256"
     inkscape:window-height="1260"
     inkscape:window-x="261"
     inkscape:window-y="646"
     inkscape:window-maximized="0" />
  <metadata
     id="metadata1194">
    <rdf:RDF>
      <cc:Work
         rdf:about="">
        <dc:format>image/svg+xml</dc:format>
        <dc:type
           rdf:resource="http://purl.org/dc/dcmitype/StillImage" />
        <dc:title></dc:title>
      </cc:Work>
    </rdf:RDF>
  </metadata>
  <g
     inkscape:label="Layer 1"
     inkscape:groupmode="layer"
     id="layer1"
     transform="translate(0,-217)">
    <path
       style="color:#000000;font-style:normal;font-variant:normal;font-weight:normal;font-stretch:normal;font-size:medium;line-height:normal;font-family:sans-serif;font-variant-ligatures:normal;font-variant-position:normal;font-variant-caps:normal;font-variant-numeric:normal;font-variant-alternates:normal;font-feature-settings:normal;text-indent:0;text-align:start;text-decoration:none;text-decoration-line:none;text-decoration-style:solid;text-decoration-color:#000000;letter-spacing:normal;word-spacing:normal;text-transform:none;writing-mode:lr-tb;direction:ltr;text-orientation:mixed;dominant-baseline:auto;baseline-shift:baseline;text-anchor:start;white-space:normal;shape-padding:0;clip-rule:nonzero;display:inline;overflow:visible;visibility:visible;opacity:1;isolation:auto;mix-blend-mode:normal;color-interpolation:sRGB;color-interpolation-filters:linearRGB;solid-color:#000000;solid-opacity:1;vector-effect:none;fill:#000000;fill-opacity:1;fill-rule:nonzero;stroke:none;stroke-width:2;stroke-linecap:round;stroke-linejoin:round;stroke-miterlimit:4;stroke-dasharray:none;stroke-dashoffset:0;stroke-opacity:1;paint-order:markers fill stroke;color-rendering:auto;image-rendering:auto;shape-rendering:auto;text-rendering:auto;enable-background:accumulate"
       d="m 35.377683,265.13741 a 1.0001,1.0001 0 0 0 -0.691431,0.29714 l -2.570387,2.52594 c -1.658213,-0.56702 -3.419121,-0.87443 -5.226553,-0.87591 -5.999723,0.004 -11.513632,3.32061 -14.328325,8.61912 a 1.0001,1.0001 0 0 0 0,0.93792 c 1.214046,2.28814 2.933592,4.20375 4.97644,5.64566 l -1.890324,1.85776 a 1.0001,1.0001 0 1 0 1.400432,1.42628 L 36.08875,266.8603 a 1.0001,1.0001 0 0 0 -0.711067,-1.72289 z m 0.412376,4.61678 -1.487246,1.46192 c 1.951135,1.21711 3.611602,2.91036 4.811075,4.96249 -2.544488,4.3487 -7.156681,7.08515 -12.224576,7.08795 -1.447183,-10e-4 -2.856553,-0.2261 -4.191476,-0.64699 l -1.599385,1.57148 c 1.819971,0.69725 3.777649,1.0737 5.790861,1.07539 5.9998,-0.003 11.513394,-3.31858 14.328323,-8.61705 a 1.0001,1.0001 0 0 0 0,-0.93793 c -1.302727,-2.45551 -3.185899,-4.48435 -5.427576,-5.95726 z m -14.602208,0.55087 a 7.0127058,7.0127058 0 0 0 -1.246436,3.9765 7.0127058,7.0127058 0 0 0 1.436089,4.2323 l -2.360064,2.31924 c -1.751918,-1.18944 -3.246692,-2.77281 -4.350639,-4.66225 1.537459,-2.62658 3.830119,-4.66311 6.52105,-5.86579 z m 3.096969,0.64905 a 2.500615,2.500615 0 0 1 2.486668,2.25878 l -2.772439,2.72438 a 2.500615,2.500615 0 0 1 -2.214854,-2.48253 2.500615,2.500615 0 0 1 2.500625,-2.50063 z m 9.273334,0.99322 -9.05681,8.90024 a 7.0127058,7.0127058 0 0 0 2.45308,0.447 7.0127058,7.0127058 0 0 0 7.012492,-7.01301 7.0127058,7.0127058 0 0 0 -0.408762,-2.33423 z"
       id="path1855"
       inkscape:connector-curvature="0" />
    <circle
       r="15.234363"
       cy="237.28207"
       cx="-47.193867"
       id="circle1859"
       style="opacity:1;fill:#576300;fill-opacity:0.62015518;stroke:none;stroke-width:0.14992996;stroke-miterlimit:4;stroke-dasharray:none;stroke-opacity:1;paint-order:markers fill stroke" />
    <circle
       style="opacity:1;fill:#576300;fill-opacity:0.46124034;stroke:none;stroke-width:0.14992996;stroke-miterlimit:4;stroke-dasharray:none;stroke-opacity:1;paint-order:markers fill stroke"
       id="circle1861"
       cx="-47.193867"
       cy="251.5696"
       r="15.234363" />
    <path
       style="opacity:1;fill:#000001;fill-opacity:1;stroke:none;stroke-width:6.99688721;stroke-linecap:round;stroke-miterlimit:4;stroke-dasharray:none;stroke-opacity:1;paint-order:markers fill stroke"
       d="m 26.889312,235.33456 c -5.999723,0.004 -11.513632,3.32061 -14.328325,8.61912 a 1.0001,1.0001 0 0 0 0,0.93792 c 2.812767,5.30129 8.327059,8.61978 14.328325,8.62481 5.9998,-0.003 11.513394,-3.31858 14.328323,-8.61705 a 1.0001,1.0001 0 0 0 0,-0.93793 c -2.812712,-5.30167 -8.326742,-8.62194 -14.328323,-8.62687 z m -5.701461,3.21996 a 7.0127058,7.0127058 0 0 0 -1.246436,3.97702 7.0127058,7.0127058 0 0 0 7.013009,7.01301 7.0127058,7.0127058 0 0 0 7.012492,-7.01301 7.0127058,7.0127058 0 0 0 -1.18029,-3.8871 c 2.608067,1.21436 4.827743,3.21868 6.327262,5.78414 -2.544488,4.3487 -7.156681,7.08515 -12.224576,7.08795 -5.069617,-0.004 -9.679866,-2.74387 -12.222511,-7.0957 1.53747,-2.62661 3.83005,-4.66361 6.52105,-5.86631 z m 3.096969,0.64957 a 2.5006151,2.5006151 0 0 1 2.500622,2.50063 2.5006151,2.5006151 0 0 1 -2.500622,2.50062 2.5006151,2.5006151 0 0 1 -2.500625,-2.50062 2.5006151,2.5006151 0 0 1 2.500625,-2.50063 z"
       id="circle1866"
       inkscape:connector-curvature="0" />
    <path
       id="path1873"
       d="m -25.962245,235.51904 a 7.0127058,7.0127058 0 0 0 -7.013008,7.0125 7.0127058,7.0127058 0 0 0 7.013008,7.01301 7.0127058,7.0127058 0 0 0 7.012494,-7.01301 7.0127058,7.0127058 0 0 0 -7.012494,-7.0125 z m -2.669603,3.68505 a 2.5006151,2.5006151 0 0 1 2.500621,2.50063 2.5006151,2.5006151 0 0 1 -2.500621,2.50062 2.5006151,2.5006151 0 0 1 -2.500624,-2.50062 2.5006151,2.5006151 0 0 1 2.500624,-2.50063 z"
       style="opacity:1;fill:#000000;fill-opacity:1;stroke:none;stroke-width:6.99688768;stroke-linecap:round;stroke-miterlimit:4;stroke-dasharray:none;stroke-opacity:1;paint-order:markers fill stroke"
       inkscape:connector-curvature="0" />
    <path
       inkscape:connector-curvature="0"
       id="path1875"
       d="m -26.027357,236.33502 a 15.234362,15.234362 0 0 0 -13.444658,8.08736 15.234362,15.234362 0 0 0 13.444658,8.09409 15.234362,15.234362 0 0 0 13.445175,-8.08685 15.234362,15.234362 0 0 0 -13.445175,-8.0946 z"
       style="opacity:1;fill:none;fill-opacity:0.62015518;stroke:#000005;stroke-width:2;stroke-linecap:round;stroke-linejoin:round;stroke-miterlimit:4;stroke-dasharray:none;stroke-opacity:1;paint-order:markers fill stroke" />
    <path
       style="opacity:1;vector-effect:none;fill:none;fill-opacity:1;stroke:#000000;stroke-width:2;stroke-linecap:round;stroke-linejoin:miter;stroke-miterlimit:4;stroke-dasharray:none;stroke-dashoffset:0;stroke-opacity:1"
       d="m -33.923367,253.10761 19.040551,-18.70983"
       id="path1884"
       inkscape:connector-curvature="0" />
    <path
       inkscape:connector-curvature="0"
       id="path1886"
       d="m -36.569203,253.10761 19.040552,-18.70983"
       style="opacity:1;vector-effect:none;fill:none;fill-opacity:1;stroke:#000000;stroke-width:2;stroke-linecap:round;stroke-linejoin:miter;stroke-miterlimit:4;stroke-dasharray:none;stroke-dashoffset:0;stroke-opacity:1" />
  </g>
</svg>
