<?xml version="1.0" encoding="UTF-8" standalone="no"?>
<!-- Created with Inkscape (http://www.inkscape.org/) -->

<svg
   xmlns:dc="http://purl.org/dc/elements/1.1/"
   xmlns:cc="http://creativecommons.org/ns#"
   xmlns:rdf="http://www.w3.org/1999/02/22-rdf-syntax-ns#"
   xmlns:svg="http://www.w3.org/2000/svg"
   xmlns="http://www.w3.org/2000/svg"
   xmlns:sodipodi="http://sodipodi.sourceforge.net/DTD/sodipodi-0.dtd"
   xmlns:inkscape="http://www.inkscape.org/namespaces/inkscape"
   width="8.5in"
   height="11in"
   viewBox="0 0 765 990"
   id="svg4516"
   version="1.1"
   inkscape:version="0.91 r13725"
   sodipodi:docname="dog.svg">
  <defs
     id="defs4518" />
  <sodipodi:namedview
     id="base"
     pagecolor="#ffffff"
     bordercolor="#666666"
     borderopacity="1.0"
     inkscape:pageopacity="0.0"
     inkscape:pageshadow="2"
     inkscape:zoom="0.35"
     inkscape:cx="-146.88041"
     inkscape:cy="488.98937"
     inkscape:document-units="px"
     inkscape:current-layer="layer19"
     showgrid="false"
     units="in"
     inkscape:window-width="1680"
     inkscape:window-height="1005"
     inkscape:window-x="0"
     inkscape:window-y="1"
     inkscape:window-maximized="1"
     inkscape:snap-nodes="false" />
  <metadata
     id="metadata4521">
    <rdf:RDF>
      <cc:Work
         rdf:about="">
        <dc:format>image/svg+xml</dc:format>
        <dc:type
           rdf:resource="http://purl.org/dc/dcmitype/StillImage" />
        <dc:title />
      </cc:Work>
    </rdf:RDF>
  </metadata>
  <g
     inkscape:groupmode="layer"
     id="layer19"
     inkscape:label="Drawing"
     style="display:inline">
    <path
       style="color:#000000;clip-rule:nonzero;display:inline;overflow:visible;visibility:visible;opacity:1;isolation:auto;mix-blend-mode:normal;color-interpolation:sRGB;color-interpolation-filters:linearRGB;solid-color:#000000;solid-opacity:1;fill:#000000;fill-opacity:1;fill-rule:nonzero;stroke:none;stroke-width:5;stroke-linecap:butt;stroke-linejoin:miter;stroke-miterlimit:4;stroke-dasharray:none;stroke-dashoffset:0;stroke-opacity:1;color-rendering:auto;image-rendering:auto;shape-rendering:auto;text-rendering:auto;enable-background:accumulate"
       d="m 145.71427,438.57143 c 0.75744,32.87256 2.30791,71.76183 7.14286,104.28571 5.30462,35.68322 6.58885,65.74658 7.14287,98.57143 0.49103,29.09333 -42.43555,191.78186 -77.142857,244.28568 -4.640137,7.01941 -29.978883,-0.83804 -47.142863,17.14286 -14.91256,15.6223 -6.428576,45.00007 -5.714286,54.28577 27.85714,5 55.714285,4.99994 94.285716,2.1428 14.19928,-21.57796 67.86861,-163.82414 114.99104,-245.79516 21.37972,19.07989 36.60363,24.34448 58.59296,41.33374 -28.12314,12.14223 -26.89862,32.77043 -28.584,45.17575 -3.59384,26.45253 13.9228,54.99011 27.85714,69.28573 16.15495,16.5738 33.57143,21.42853 45,32.14287 -30,-5.71433 -59.73383,-1.52693 -74.28571,8.57133 -17.24895,11.9699 -18.57142,32.14288 -19.28571,50.00004 30,2.85719 46.47637,2.28366 75.71428,2.14286 74.07814,-0.3568 143.57143,0.71436 192.85714,-6.4285 L 520,914.28574 l 35.71428,-14.2857 c 0,0 41.16945,21.0432 68.57143,17.1428 29.54671,-4.2057 64.12433,-8.2669 95.71423,-47.1429 25.3465,-31.1926 34.4027,-70.46876 27.1429,-109.99994 -7.4383,-40.50293 -28.5762,-72.83304 -62.8572,-88.57143 -27.2105,-12.49237 -101.4285,-18.57143 -119.99993,67.14286 52.85715,-21.42858 82.46937,-14.89996 80,34.28571 -2.0101,40.0377 -37.14286,34.2857 -37.14286,34.2857 0,0 -5.90725,-51.98022 -14.28571,-82.85713 C 579.24887,674.13552 564.71213,642.13049 536.37781,598.57142 504.65152,549.7978 456.86079,496.51151 415.0928,455.43945 375.94287,416.94183 357.84316,384.98623 341.42856,342.85714 329.69069,312.73117 310.99941,257.78352 297.14284,228.57141 279.55942,191.50244 263.62889,159.96466 219.99999,125.71428 l 0,70 c 0,0 -26.98976,-2.478 -44.28571,4.28571 -25.56737,9.99831 -29.82671,30.2451 -42.68385,38.81653 -21.77521,5.46918 -88.264604,8.29624 -92.163864,12.54025 -4.70855,5.12486 0.984397,51.1526 12.943805,66.73931 9.335968,12.16758 54.312889,11.13886 73.505789,26.29115 7.07107,14.14214 17.11507,38.50098 18.39811,94.1842 z"
       id="path12322"
       inkscape:connector-curvature="0"
       sodipodi:nodetypes="sssssccccsscscscccsssscscsssssccscsscs" />
    <path
       sodipodi:nodetypes="ssssscccccscssscscscccsssscscssssssccsccscs"
       inkscape:connector-curvature="0"
       id="path12345"
       d="m -1411.4286,275.71429 c 0.7574,32.87256 4.6803,65.69584 14.2857,97.14285 9.5904,31.39751 18.0174,70.0323 18.5715,102.85715 0.491,29.09333 -48.0674,214.3353 -80,268.5714 -7.4973,12.7337 -37.1218,2.0191 -54.2858,20 -14.9125,15.6223 -10.7143,43.5715 -10,52.8572 27.8572,5 71.4286,7.1428 120,7.1428 26.4286,-42.8571 113.5715,-264.28568 127.1429,-306.42854 5.7143,20 -8.5714,50 -12.8571,62.14286 14.6533,16.89776 22.7197,22.56127 42.352,34.40827 10.3826,-12.94379 22.766,-15.43056 34.7908,-19.40827 17.0681,-5.646 40.4896,-11.21193 69.2857,6.42856 -37.8571,-10 -65.9654,-1.43634 -82.8571,8.57144 -17.5317,10.38692 -31.3278,31.08522 -34.2857,52.85715 -3.5939,26.45253 12.1424,56.97403 27.8571,69.28573 21.155,16.5738 42.8572,27.8571 78.5714,40.7143 -38.5714,-2.1429 -74.6102,-10.1861 -102.1428,4.9999 -23.1296,12.7575 -25,31.4286 -32.1429,52.1429 25,7.1429 52.1907,10.1408 81.4286,10 74.0782,-0.3568 147.8572,-6.4285 195.7143,-21.4285 l 1.4286,-41.4286 35.71425,-14.2857 c 0,0 41.16945,21.0432 68.57143,17.1428 29.54671,-4.2057 64.12433,-8.2669 95.71423,-47.1429 25.3465,-31.1926 34.4027,-70.46876 27.1429,-109.99994 -7.4383,-40.50293 -28.5762,-72.83304 -62.8572,-88.57143 -27.2105,-12.49237 -101.4285,-18.57143 -119.99993,67.14286 52.85715,-21.42858 82.46937,-14.89996 80,34.28571 -2.0101,40.0377 -37.14286,34.2857 -37.14286,34.2857 0,0 1.23561,-64.83736 -7.14285,-95.71427 -13.60827,-50.15019 -39.65523,-80.75707 -65.71429,-125.71429 -27.68568,-47.76347 -71.27928,-97.17448 -104.28568,-141.42856 -26.5013,-35.53218 -58.9748,-63.24135 -68.5715,-94.28573 -9.6005,-31.05672 -37.3639,-54.89121 -41.4285,-87.14285 -4.0428,-32.078154 -21.0567,-59.146854 -22.8572,-91.428584 -1.5729,-28.2013203 -8.5714,-75.71428 -42.8571,-108.57142 l -32.8572,79.9999997 c 0,0 -38.4183,-6.76371 -55.7143,0 -25.5673,9.9983103 -45.7143,42.8571403 -45.7143,42.8571403 l -99.2349,3.44888 c 0,0 7.6081,34.75575 15.7143,57.142864 10.7468,29.67959 67.8064,55.12254 67.8064,55.12254 0,0 11.5741,55.74536 12.8571,111.42858 z"
       style="color:#000000;clip-rule:nonzero;display:inline;overflow:visible;visibility:visible;opacity:1;isolation:auto;mix-blend-mode:normal;color-interpolation:sRGB;color-interpolation-filters:linearRGB;solid-color:#000000;solid-opacity:1;fill:#000000;fill-opacity:1;fill-rule:nonzero;stroke:none;stroke-width:5;stroke-linecap:butt;stroke-linejoin:miter;stroke-miterlimit:4;stroke-dasharray:none;stroke-dashoffset:0;stroke-opacity:1;color-rendering:auto;image-rendering:auto;shape-rendering:auto;text-rendering:auto;enable-background:accumulate" />
    <path
       sodipodi:nodetypes="sssssccccsscscscccsssscscsssssccsccscs"
       inkscape:connector-curvature="0"
       id="path12347"
       d="m -1485.7143,955.71429 c 0.7574,32.87256 14.6803,99.98151 24.2857,131.42851 9.5903,31.3976 -1.9826,51.4609 -1.4285,84.2858 0.491,29.0933 -39.5785,221.7818 -74.2858,274.2856 -4.6401,7.0195 -29.9788,-0.838 -47.1428,17.1429 -14.9126,15.6223 -6.4286,45.0001 -5.7143,54.2858 27.8571,5 55.7143,4.9999 94.2857,2.1428 14.1993,-21.578 70.7258,-170.967 117.8482,-252.938 17.094,18.8153 33.7465,28.3717 55.7358,48.4766 -28.1231,12.1422 -26.8986,32.7704 -28.584,45.1757 -3.5938,26.4525 13.9228,54.9901 27.8571,69.2857 16.155,16.5738 33.5715,21.4286 45,32.1429 -30,-5.7143 -59.7338,-1.5269 -74.2857,8.5713 -17.2489,11.9699 -18.5714,32.1429 -19.2857,50.0001 30,2.8572 46.4764,2.2836 75.7143,2.1428 74.0781,-0.3568 143.5714,0.7144 192.8571,-6.4285 L -1100,1474.2857 -1064.2857,1460 c 0,0 41.1694,21.0432 68.57141,17.1428 29.54671,-4.2057 64.12433,-8.2669 95.71423,-47.1429 25.3465,-31.1926 34.4027,-70.4687 27.1429,-109.9999 -7.4383,-40.5029 -28.5762,-72.833 -62.8572,-88.5714 -27.2105,-12.4924 -101.42854,-18.5715 -119.99994,67.1428 52.8572,-21.4285 82.46938,-14.8999 80.00001,34.2857 -2.0101,40.0377 -37.14291,34.2857 -37.14291,34.2857 0,0 1.2357,-64.8373 -7.1428,-95.7142 -13.6083,-50.1502 -42.4307,-82.1553 -70.7651,-125.7143 -31.7262,-48.7736 -65.0676,-100.812 -105.5707,-143.132 C -1245.4857,951.22754 -1260.7283,919.27195 -1290,860 c -14.3166,-28.98944 -30.4292,-85.07362 -44.2857,-114.28573 -17.5835,-37.06897 -33.514,-68.60675 -77.1429,-102.85713 l 0,70 c 0,0 -26.9897,-2.478 -44.2857,4.28571 -25.5674,9.99831 -32.8572,34.28571 -45.7143,42.85714 -15.7143,1.42857 -92.0921,2.02031 -99.2349,3.44888 -2.8572,12.85714 -0.2633,40.44233 11.4285,61.18347 11.0935,19.67959 82.0921,30.83683 82.0921,30.83683 0,0 20.1456,44.5619 21.4286,100.24512 z"
       style="color:#000000;clip-rule:nonzero;display:inline;overflow:visible;visibility:visible;opacity:1;isolation:auto;mix-blend-mode:normal;color-interpolation:sRGB;color-interpolation-filters:linearRGB;solid-color:#000000;solid-opacity:1;fill:#000000;fill-opacity:1;fill-rule:nonzero;stroke:none;stroke-width:5;stroke-linecap:butt;stroke-linejoin:miter;stroke-miterlimit:4;stroke-dasharray:none;stroke-dashoffset:0;stroke-opacity:1;color-rendering:auto;image-rendering:auto;shape-rendering:auto;text-rendering:auto;enable-background:accumulate" />
    <path
       sodipodi:nodetypes="sssssccccsscscscccsssscscsssssccscsscs"
       inkscape:connector-curvature="0"
       id="path12411"
       d="m 380.7321,-216.75946 c 0.10452,4.53606 0.31847,9.90236 0.98563,14.39029 0.73199,4.9239 0.9092,9.07232 0.98564,13.60179 0.0678,4.01456 -5.85564,26.4638 -10.64487,33.70876 -0.64029,0.9686 -4.13676,-0.11564 -6.5052,2.36553 -2.05777,2.1557 -0.88707,6.20952 -0.78851,7.49084 3.84398,0.68995 7.68796,0.68994 13.0104,0.29568 1.95935,-2.97752 9.36513,-22.60594 15.86751,-33.91705 2.95017,2.63282 5.0509,3.35927 8.08519,5.70361 -3.88069,1.67549 -3.71172,4.52196 -3.94428,6.23376 -0.49591,3.65016 1.9212,7.58803 3.84398,9.56068 2.22921,2.287 4.63249,2.9569 6.20951,4.43536 -4.13967,-0.78852 -8.24261,-0.2107 -10.25062,1.18275 -2.38016,1.65172 -2.56265,4.43537 -2.66121,6.89946 4.13967,0.39426 6.41323,0.31512 10.44774,0.29569 10.22197,-0.0492 19.8113,0.0986 26.61218,-0.88706 l 0.39426,-5.7167 4.92818,-1.97127 c 0,0 5.68093,2.90373 9.46211,2.36552 4.07712,-0.58034 8.84846,-1.14074 13.20752,-6.5052 3.49754,-4.30424 4.7472,-9.72392 3.74543,-15.1788 -1.02641,-5.58896 -3.94321,-10.05016 -8.67361,-12.22189 -3.75476,-1.72381 -13.99603,-2.56265 -16.55868,9.26499 7.2937,-2.95691 11.37987,-2.05604 11.03912,4.73105 -0.27737,5.52477 -5.12531,4.73105 -5.12531,4.73105 0,0 -0.81514,-7.1727 -1.97127,-11.43338 -1.87779,-6.92018 -3.88371,-11.33652 -7.79353,-17.3472 -4.37789,-6.73023 -10.97248,-14.08316 -16.73601,-19.75065 -5.40226,-5.31226 -7.89983,-9.72178 -10.16486,-15.53513 -1.6197,-4.15706 -4.19889,-11.73924 -6.11095,-15.77019 -2.42632,-5.11511 -4.62456,-9.46698 -10.64487,-14.19316 l 0,9.65924 c 0,0 -3.72429,-0.34194 -6.11095,0.59138 -3.52801,1.37965 -4.11576,4.1735 -5.8899,5.35626 -3.00475,0.75469 -12.17955,1.14479 -12.71761,1.73042 -0.64973,0.70717 0.13584,7.05849 1.7861,9.20929 1.28827,1.67899 7.49459,1.53704 10.143,3.62789 0.97573,1.95146 2.3617,5.31272 2.53874,12.99639 z"
       style="color:#000000;clip-rule:nonzero;display:inline;overflow:visible;visibility:visible;opacity:1;isolation:auto;mix-blend-mode:normal;color-interpolation:sRGB;color-interpolation-filters:linearRGB;solid-color:#000000;solid-opacity:1;fill:#000000;fill-opacity:1;fill-rule:nonzero;stroke:none;stroke-width:5;stroke-linecap:butt;stroke-linejoin:miter;stroke-miterlimit:4;stroke-dasharray:none;stroke-dashoffset:0;stroke-opacity:1;color-rendering:auto;image-rendering:auto;shape-rendering:auto;text-rendering:auto;enable-background:accumulate" />
    <path
       style="color:#000000;clip-rule:nonzero;display:inline;overflow:visible;visibility:visible;opacity:1;isolation:auto;mix-blend-mode:normal;color-interpolation:sRGB;color-interpolation-filters:linearRGB;solid-color:#000000;solid-opacity:1;fill:none;fill-opacity:1;fill-rule:evenodd;stroke:#000000;stroke-width:5;stroke-linecap:butt;stroke-linejoin:miter;stroke-miterlimit:4;stroke-dasharray:none;stroke-dashoffset:0;stroke-opacity:1;color-rendering:auto;image-rendering:auto;shape-rendering:auto;text-rendering:auto;enable-background:accumulate"
       d="m 283.10036,-259.30616 0.25254,8.83884 c 0,0 -5.34823,-0.2257 -7.57615,1.01015 -2.19607,1.21818 -4.79822,5.80838 -4.79822,5.80838 l -13.13199,1.51523 c 0,0 0.55363,8.2418 3.283,10.85914 2.1957,2.10557 8.83883,2.27284 8.83883,2.27284 0,0 6.64555,26.71969 5.30331,40.15356 -1.21216,12.13196 -11.8693,34.59773 -11.8693,34.59773 0,0 -4.82644,0.0634 -6.06091,1.76776 -1.48219,2.04641 0.25254,7.57615 0.25254,7.57615 l 67.17514,0 5.80838,-7.07107 c 0,0 7.40808,2.69534 11.11168,2.02031 4.34602,-0.79211 8.7261,-3.27513 11.36421,-6.81853 2.64577,-3.55368 5.34761,-9.89867 3.283,-15.65737 -2.12798,-5.93548 -7.34873,-11.81733 -15.15229,-11.36422 2.82971,6.52394 4.32684,13.63701 1.26269,15.15229 -2.91039,1.43924 -6.56599,-1.51522 -6.56599,-1.51522 -1.26269,-9.59645 -11.24681,-27.46023 -16.92006,-34.85027 -5.18946,-6.75985 -15.65736,-19.44544 -15.65736,-19.44544 0,0 -6.32375,-12.95658 -7.82869,-20.20304 -1.42751,-6.87365 -12.37436,-14.64722 -12.37436,-14.64722 z"
       id="path12413"
       inkscape:connector-curvature="0"
       sodipodi:nodetypes="ccsccscscscccssscscscsc" />
  </g>
</svg>
