<?xml version="1.0" encoding="UTF-8" standalone="no"?>
<!-- Created with Inkscape (http://www.inkscape.org/) -->

<svg
   xmlns:dc="http://purl.org/dc/elements/1.1/"
   xmlns:cc="http://creativecommons.org/ns#"
   xmlns:rdf="http://www.w3.org/1999/02/22-rdf-syntax-ns#"
   xmlns:svg="http://www.w3.org/2000/svg"
   xmlns="http://www.w3.org/2000/svg"
   xmlns:sodipodi="http://sodipodi.sourceforge.net/DTD/sodipodi-0.dtd"
   xmlns:inkscape="http://www.inkscape.org/namespaces/inkscape"
   width="1in"
   height="1in"
   viewBox="0 0 90 90"
   id="svg4516"
   version="1.1"
   inkscape:version="0.91 r13725"
   sodipodi:docname="hachiko-laser.svg">
  <defs
     id="defs4518" />
  <sodipodi:namedview
     id="base"
     pagecolor="#ffffff"
     bordercolor="#666666"
     borderopacity="1.0"
     inkscape:pageopacity="0.0"
     inkscape:pageshadow="2"
     inkscape:zoom="3.959798"
     inkscape:cx="15.933065"
     inkscape:cy="72.349457"
     inkscape:document-units="px"
     inkscape:current-layer="layer19"
     showgrid="false"
     units="in"
     inkscape:window-width="1680"
     inkscape:window-height="1005"
     inkscape:window-x="0"
     inkscape:window-y="1"
     inkscape:window-maximized="1"
     inkscape:snap-nodes="false" />
  <metadata
     id="metadata4521">
    <rdf:RDF>
      <cc:Work
         rdf:about="">
        <dc:format>image/svg+xml</dc:format>
        <dc:type
           rdf:resource="http://purl.org/dc/dcmitype/StillImage" />
        <dc:title />
      </cc:Work>
    </rdf:RDF>
  </metadata>
  <g
     inkscape:groupmode="layer"
     id="layer19"
     inkscape:label="Drawing"
     style="display:inline"
     transform="translate(0,-900)">
    <path
       style="color:#000000;clip-rule:nonzero;display:inline;overflow:visible;visibility:visible;opacity:1;isolation:auto;mix-blend-mode:normal;color-interpolation:sRGB;color-interpolation-filters:linearRGB;solid-color:#000000;solid-opacity:1;fill:#000000;fill-opacity:1;fill-rule:nonzero;stroke:none;stroke-width:0.35433072;stroke-linecap:butt;stroke-linejoin:miter;stroke-miterlimit:4;stroke-dasharray:none;stroke-dashoffset:0;stroke-opacity:1;color-rendering:auto;image-rendering:auto;shape-rendering:auto;text-rendering:auto;enable-background:accumulate"
       d="m 34.074219,907.26339 0,6.16797 c 0,0 -2.378334,-0.21903 -3.902344,0.37695 -2.25284,0.88098 -2.628829,2.66467 -3.761719,3.41993 -1.91869,0.48191 -7.777513,0.73151 -8.121094,1.10546 -0.414889,0.45159 0.0868,4.50745 1.140626,5.88086 0.82263,1.07213 4.785402,0.98128 6.476562,2.31641 0.62305,1.24611 1.508044,3.39237 1.621094,8.29883 0.0667,2.89653 0.204829,6.32365 0.630859,9.18945 0.46741,3.14418 0.580086,5.79322 0.628906,8.68555 0.0433,2.56352 -3.738675,16.89909 -6.796875,21.52539 -0.40886,0.61851 -2.641916,-0.0746 -4.154296,1.50976 -1.314,1.37654 -0.566847,3.96501 -0.503907,4.78321 2.4546,0.44057 4.909924,0.4412 8.308594,0.18945 1.25115,-1.90132 5.978729,-14.43542 10.130859,-21.6582 1.88385,1.68121 3.226503,2.14559 5.164063,3.64258 -2.47804,1.06989 -2.371031,2.88739 -2.519531,3.98046 -0.31667,2.33083 1.227278,4.84388 2.455078,6.10352 1.42348,1.46038 2.957833,1.88991 3.964844,2.83398 -2.643411,-0.50351 -5.262702,-0.13589 -6.544922,0.75391 -1.51987,1.05471 -1.636279,2.83279 -1.699219,4.40625 2.64342,0.25176 4.095615,0.20186 6.671875,0.18945 6.52731,-0.0314 12.649437,0.063 16.992187,-0.5664 l 0.251953,-3.65039 3.146485,-1.25977 c 0,0 3.628479,1.85344 6.042969,1.50977 2.60347,-0.37058 5.650083,-0.72684 8.433593,-4.15235 2.23337,-2.7485 3.030315,-6.21012 2.390625,-9.69336 -0.65542,-3.56887 -2.516479,-6.41791 -5.537109,-7.80468 -1.866091,-0.85673 -6.231886,-1.35145 -8.851563,2.02343 -1.010652,-3.02847 -2.219791,-5.42736 -4.18164,-8.44336 -2.79552,-4.29763 -7.00717,-8.99231 -10.6875,-12.61132 -3.44965,-3.39217 -5.043885,-6.20778 -6.490234,-9.91993 -1.03427,-2.65452 -2.681384,-7.49632 -3.902344,-10.07031 -1.54934,-3.26629 -2.952575,-6.04457 -6.796875,-9.0625 z m 34.669922,52.98438 c 1.882375,0.0885 2.850837,1.3284 2.714843,4.03711 -0.17711,3.52787 -3.273437,3.02148 -3.273437,3.02148 0,0 -0.479577,-4.13316 -1.164063,-6.87891 0.636505,-0.13736 1.215265,-0.20353 1.722657,-0.17968 z"
       id="path4138"
       inkscape:connector-curvature="0" />
  </g>
</svg>
