<?xml version="1.0" encoding="UTF-8" standalone="no"?>
<!-- Created with Inkscape (http://www.inkscape.org/) -->

<svg
   xmlns:dc="http://purl.org/dc/elements/1.1/"
   xmlns:cc="http://creativecommons.org/ns#"
   xmlns:rdf="http://www.w3.org/1999/02/22-rdf-syntax-ns#"
   xmlns:svg="http://www.w3.org/2000/svg"
   xmlns="http://www.w3.org/2000/svg"
   xmlns:sodipodi="http://sodipodi.sourceforge.net/DTD/sodipodi-0.dtd"
   xmlns:inkscape="http://www.inkscape.org/namespaces/inkscape"
   width="1.5in"
   height="1.5in"
   viewBox="0 0 135 135"
   id="svg4516"
   version="1.1"
   inkscape:version="0.91 r13725"
   sodipodi:docname="kaiju-laser.svg"
   inkscape:export-filename="/Users/garykac/projects/github/shinjuku/components/kaiju-laser.png"
   inkscape:export-xdpi="300"
   inkscape:export-ydpi="300">
  <defs
     id="defs4518" />
  <sodipodi:namedview
     id="base"
     pagecolor="#ffffff"
     bordercolor="#666666"
     borderopacity="1.0"
     inkscape:pageopacity="0.0"
     inkscape:pageshadow="2"
     inkscape:zoom="3.959798"
     inkscape:cx="7.0737322"
     inkscape:cy="44.911935"
     inkscape:document-units="px"
     inkscape:current-layer="layer19"
     showgrid="false"
     units="in"
     inkscape:window-width="1680"
     inkscape:window-height="1005"
     inkscape:window-x="0"
     inkscape:window-y="1"
     inkscape:window-maximized="1"
     inkscape:snap-nodes="false" />
  <metadata
     id="metadata4521">
    <rdf:RDF>
      <cc:Work
         rdf:about="">
        <dc:format>image/svg+xml</dc:format>
        <dc:type
           rdf:resource="http://purl.org/dc/dcmitype/StillImage" />
        <dc:title></dc:title>
      </cc:Work>
    </rdf:RDF>
  </metadata>
  <g
     inkscape:groupmode="layer"
     id="layer19"
     inkscape:label="Drawing"
     style="display:inline"
     transform="translate(0,-855)">
    <path
       style="color:#000000;clip-rule:nonzero;display:inline;overflow:visible;visibility:visible;opacity:1;isolation:auto;mix-blend-mode:normal;color-interpolation:sRGB;color-interpolation-filters:linearRGB;solid-color:#000000;solid-opacity:1;fill:#000000;fill-opacity:1;fill-rule:evenodd;stroke:none;stroke-width:5;stroke-linecap:butt;stroke-linejoin:miter;stroke-miterlimit:4;stroke-dasharray:none;stroke-dashoffset:0;stroke-opacity:1;color-rendering:auto;image-rendering:auto;shape-rendering:auto;text-rendering:auto;enable-background:accumulate"
       d="m 27.55481,877.83274 c 0,0 -0.36739,-9.26772 -6.01197,-15.69628 8.78045,-0.78395 17.54244,9.48755 17.54244,9.48755 1.88154,-0.78397 5.6753,-5.91279 5.36172,-13.90927 5.01742,3.60624 8.04566,13.22369 8.82964,17.45713 5.0174,-1.88155 9.08345,-4.29377 17.29571,-3.54786 -0.77607,5.32176 -2.99348,12.08486 -5.76523,16.85226 5.32177,-0.33261 11.97395,0.3326 18.29354,6.54133 -4.98917,3.76957 -9.97829,6.09782 -11.64135,10.31089 5.98699,-0.44349 14.52397,2.8826 16.29789,6.87393 -4.39023,2.03832 -10.3109,5.10003 -11.86308,9.9783 4.07664,0.78398 9.36226,2.159 14.06608,6.54922 -4.07665,2.03831 -7.6504,4.89286 -9.06154,8.9695 5.08264,1.9384 8.9426,4.4069 11.04198,10.02514 -3.83243,2.63079 -5.81958,5.8087 -6.28995,9.10137 0,1.88152 3.24662,8.03979 7.09567,10.14624 4.40902,2.41289 11.06046,3.01971 15.0783,0 4.67487,-3.51355 4.9066,-11.00428 4.87828,-16.85223 -0.0299,-6.17336 -1.81189,-11.15513 -4.21304,-16.18702 -1.66168,-3.48224 -3.54785,-5.32176 -6.87395,-9.31308 11.97395,-1.5799 20.39414,11.40369 23.72617,19.73485 3.31605,8.29124 2.97925,19.66765 0.88697,26.38706 -2.62822,8.44058 -11.53048,18.18268 -19.29138,18.40442 l -15.96527,0 c -4.65655,0.22174 -10.886239,-2.08829 -15.075253,-5.00763 -4.350699,-3.03201 -7.924121,-6.86159 -12.217269,-11.02847 -2.020305,0 -4.708008,1.19459 -6.068358,3.44978 -2.34723,3.89128 -2.08186,12.58632 -2.08186,12.58632 l -24.3914,0 c 0,0 -2.54359,-4.24483 -1.55218,-7.31742 1.57668,-4.88643 7.31742,-5.10003 7.31742,-5.10003 0,0 -4.40312,-15.9562 -3.14001,-24.39137 1.1619,-7.75946 8.20437,-14.85658 8.20437,-14.85658 l -1.09595,-12.20633 c 0,0 -7.05619,3.73269 -10.98145,2.99456 -3.5378,-0.66529 -7.7124,-6.18644 -11.16654,-5.49252 -4.43106,0.89018 -14.4070818,-3.45315 -11.4302268,-10.44661 4.0182828,3.24444 6.3469268,2.76969 9.0630968,2.08058 -0.34952,-3.49885 -1.70155,-5.93449 -6.01564,-7.72939 3.96657,-5.16185 13.028324,-0.35214 14.07071,6.68413 0.36721,2.47866 4.785794,4.57223 7.499973,3.68505 3.081645,-1.00729 4.951867,-7.72197 4.951867,-7.72197 0,0 -1.973261,-6.67161 -4.442344,-8.87219 -3.617716,-3.2243 -9.742276,-2.04216 -13.659976,-4.97603 -2.28294,-1.70963 -3.18044,-7.00383 -3.18044,-7.00383 0,0 4.3762,-1.06947 5.84132,-2.68779 1.44508,-1.5962 0.44752,-3.68471 1.56794,-5.42475 0.96702,-1.50176 4.56463,-2.53099 4.56463,-2.53099 z"
       id="path4139"
       inkscape:connector-curvature="0"
       sodipodi:nodetypes="cccccccccccccccsssscssccscsccscsccsscccsscsscsscc"
       inkscape:export-xdpi="300"
       inkscape:export-ydpi="300" />
  </g>
</svg>
