<?xml version="1.0" encoding="UTF-8" standalone="no"?>
<!-- Created with Inkscape (http://www.inkscape.org/) -->

<svg
   xmlns:dc="http://purl.org/dc/elements/1.1/"
   xmlns:cc="http://creativecommons.org/ns#"
   xmlns:rdf="http://www.w3.org/1999/02/22-rdf-syntax-ns#"
   xmlns:svg="http://www.w3.org/2000/svg"
   xmlns="http://www.w3.org/2000/svg"
   xmlns:sodipodi="http://sodipodi.sourceforge.net/DTD/sodipodi-0.dtd"
   xmlns:inkscape="http://www.inkscape.org/namespaces/inkscape"
   width="1.5in"
   height="1.6in"
   viewBox="0 0 135 144"
   id="svg4516"
   version="1.1"
   inkscape:version="0.92.5 (2060ec1f9f, 2020-04-08)"
   sodipodi:docname="kaiju2-laser.svg"
   inkscape:export-filename="/Users/garykac/projects/github/shinjuku/components/kaiju2.png"
   inkscape:export-xdpi="300"
   inkscape:export-ydpi="300">
  <defs
     id="defs4518" />
  <sodipodi:namedview
     id="base"
     pagecolor="#ffffff"
     bordercolor="#666666"
     borderopacity="1.0"
     inkscape:pageopacity="0.0"
     inkscape:pageshadow="2"
     inkscape:zoom="3.959798"
     inkscape:cx="44.758193"
     inkscape:cy="72.375069"
     inkscape:document-units="px"
     inkscape:current-layer="g4145"
     showgrid="false"
     units="in"
     inkscape:window-width="3440"
     inkscape:window-height="1406"
     inkscape:window-x="0"
     inkscape:window-y="417"
     inkscape:window-maximized="1"
     inkscape:snap-nodes="false" />
  <metadata
     id="metadata4521">
    <rdf:RDF>
      <cc:Work
         rdf:about="">
        <dc:format>image/svg+xml</dc:format>
        <dc:type
           rdf:resource="http://purl.org/dc/dcmitype/StillImage" />
        <dc:title />
      </cc:Work>
    </rdf:RDF>
  </metadata>
  <g
     transform="translate(0,9)"
     style="display:inline"
     inkscape:label="Drawing2 copy"
     id="g4145"
     inkscape:groupmode="layer">
    <path
       style="color:#000000;clip-rule:nonzero;display:inline;overflow:visible;visibility:visible;opacity:1;isolation:auto;mix-blend-mode:normal;color-interpolation:sRGB;color-interpolation-filters:linearRGB;solid-color:#000000;solid-opacity:1;fill:#000000;fill-opacity:1;fill-rule:evenodd;stroke:none;stroke-width:5;stroke-linecap:butt;stroke-linejoin:miter;stroke-miterlimit:4;stroke-dasharray:none;stroke-dashoffset:0;stroke-opacity:1;color-rendering:auto;image-rendering:auto;shape-rendering:auto;text-rendering:auto;enable-background:accumulate"
       d="m 113.51172,2.8085938 c -0.12038,-0.014188 -0.25689,-0.00678 -0.41016,0.023437 C 95.262868,12.069772 81.760749,17.811696 61.3125,23.255859 c -0.137167,-0.174031 -0.279968,-0.341452 -0.427734,-0.5 -2.473904,-2.654411 -6.34125,-5.21182 -10.871094,-2.970703 3.156727,2.146574 4.74798,2.6526 6.007812,5.925782 0.176303,0.458053 0.313952,1.047068 0.427735,1.671874 -1.000266,10.946513 -4.942107,19.250035 -13.832031,24.300782 -2.066726,-2.429865 -4.115484,-4.253256 -4.644532,-7.435547 -0.405777,-2.440803 -1.074168,-4.151257 -2.060547,-5.242188 0.43535,-2.391836 0.596692,-4.873278 -0.01953,-6.662109 -1.667048,-4.839268 -5.115513,-8.890904 -10.472656,-9.248047 2.142857,3.571429 4.592725,8.413394 4.041016,12.878906 -0.08026,0.649589 -0.368704,1.384898 -0.736329,2.13086 -0.408208,0.119941 -0.828345,0.254228 -1.267578,0.408203 -2.486856,0.871775 -3.833792,0.302821 -6.783203,3.371094 -1.132694,1.178342 -0.381968,4.101605 -1.814453,4.888672 -2.670337,1.467192 -6.293815,2.038302 -8.001953,2.654296 -1.3494014,0.486625 1.050882,7.829037 2.572266,8.126954 5.03462,0.985876 9.338803,0.200205 14.345703,1.980468 1.060189,0.376963 2.026511,1.667804 2.662109,2.664063 0.494907,2.896487 1.622834,8.871627 3.226562,13.457031 -0.669652,3.073736 -1.996812,5.617672 -3.86914,5.767578 -2.189668,0.175314 -6.203138,-6.845911 -13.167969,-7.246094 -3.717772,-0.213615 -6.6474019,0.719071 -10.4199218,3.580078 -3.2237569,2.444838 -5.0097786,7.14816 -4.8828124,12.695313 0.1110975,4.853849 2.0717074,7.785156 5.1074218,9.035156 C 6.2067092,92.67829 6.7882523,85.293654 13.214844,82.78125 c 0,0 3.175501,3.916016 0.318359,10.166016 4.178054,0.07669 7.916508,-3.390835 8.861328,-7.650391 4.772843,2.025562 7.282212,7.69106 9.642578,7.298828 1.685419,-0.280073 4.602096,-3.857467 6.859375,-6.960937 1.51184,2.233139 3.198708,4.337627 5.052735,6.166015 1.673666,1.650523 4.062715,3.621452 6.441406,5.478516 -2.628634,3.371753 -5.837538,7.932333 -6.863281,11.369143 -1.172049,3.92701 -0.78951,8.29391 0.09766,12.29492 0.947968,4.27522 2.175781,8.66601 2.175781,8.66602 -6.071429,6.07142 -7.562906,2.73346 -12.003906,4.14648 -0.111689,0.0355 -0.213839,0.0759 -0.322266,0.11328 -1.689517,-0.62495 -3.490806,-1.04882 -4.77539,-0.65625 -3.470088,1.06047 -5.885699,3.50294 -6.845703,8.46484 0,0 2.697742,-0.8168 5.273437,-1.14648 -0.235283,0.85104 -0.412538,1.748 -0.519531,2.71094 5.555839,-1.01015 8.119349,-1.43834 11.86914,-1.50977 3.500462,-0.0667 7.034878,0.97406 10.427735,1.50977 3.697438,-4.87389 8.523236,-7.62396 12.453125,-9.17774 0.403755,-0.15963 0.537571,-0.68745 0.257812,-1.12304 -1.739664,-2.7087 -3.700909,-4.11925 -4.197265,-9.14063 -0.319638,-3.23361 0.85642,-6.72298 2.777343,-9.34375 0.870706,-1.18793 2.556182,-2.40481 4.207032,-3.42578 1.557656,1.71149 3.047065,3.35308 4.847656,5.31445 3.310787,3.60642 7.125006,13.26799 10.730469,17.99414 2.249433,2.94863 7.616908,8.63449 13.509765,8.90235 h 10.578122 c 5.89286,0 10.41851,-4.01854 11.57226,-6.85938 2.23479,-5.50263 2.56881,-10.4504 2.38672,-16.38672 -0.13365,-4.35722 1.72508,-11.3076 5.71094,-14.13867 2.61975,-1.86075 6.83901,-1.99191 10.76758,-1.63476 0.41037,0.15241 0.14102,-0.66491 -0.22852,-1.1875 -2.98061,-4.215144 -9.65837,-4.408485 -13.26367,-3.41016 -5.84226,1.61775 -9.37391,7.58103 -11.05078,12.98633 -1.44384,4.65415 -0.87506,9.53004 -2.55859,14.41992 -2.25636,6.55369 -8.27124,4.90838 -11.853515,0.80664 -6.166393,-7.06055 -7.686323,-17.13652 -12.375,-25.25391 -1.075396,-1.8618 -2.675763,-4.28364 -4.279297,-6.652339 2.432585,-1.979764 5.793602,-3.514333 11.023438,-4.564453 0.522921,-0.105 0.799481,-0.292337 0.832031,-0.652344 -2.726264,-13.967561 2.798304,-26.779133 18.503903,-34.896485 0.56731,-0.293208 0.92561,-0.803041 0.94141,-1.216797 -8.7259,-13.969518 -6.30915,-28.09247 3.68945,-49.4667964 0.52052,-1.1127316 0.46763,-2.2268541 -0.375,-2.3261718 z"
       transform="translate(0,-9)"
       id="path4149"
       inkscape:connector-curvature="0" />
  </g>
</svg>
