<?xml version="1.0" encoding="UTF-8" standalone="no"?>
<!-- Created with Inkscape (http://www.inkscape.org/) -->

<svg
   width="1024"
   height="1024"
   viewBox="0 0 270.93333 270.93334"
   version="1.1"
   id="svg1153"
   inkscape:version="1.2 (dc2aeda, 2022-05-15)"
   sodipodi:docname="matsuri-lantern.svg"
   inkscape:export-filename="matsuri-lantern.png"
   inkscape:export-xdpi="96"
   inkscape:export-ydpi="96"
   xmlns:inkscape="http://www.inkscape.org/namespaces/inkscape"
   xmlns:sodipodi="http://sodipodi.sourceforge.net/DTD/sodipodi-0.dtd"
   xmlns:xlink="http://www.w3.org/1999/xlink"
   xmlns="http://www.w3.org/2000/svg"
   xmlns:svg="http://www.w3.org/2000/svg">
  <sodipodi:namedview
     id="namedview1155"
     pagecolor="#ffffff"
     bordercolor="#666666"
     borderopacity="1.0"
     inkscape:pageshadow="2"
     inkscape:pageopacity="0.0"
     inkscape:pagecheckerboard="0"
     inkscape:document-units="mm"
     showgrid="false"
     inkscape:zoom="0.64052329"
     inkscape:cx="368.44874"
     inkscape:cy="433.23952"
     inkscape:window-width="1647"
     inkscape:window-height="969"
     inkscape:window-x="0"
     inkscape:window-y="38"
     inkscape:window-maximized="0"
     inkscape:current-layer="layer1"
     units="px"
     inkscape:snap-bbox="true"
     inkscape:snap-page="false"
     inkscape:snap-global="false"
     inkscape:showpageshadow="2"
     inkscape:deskcolor="#d1d1d1" />
  <defs
     id="defs1150" />
  <g
     inkscape:groupmode="layer"
     id="layer2"
     inkscape:label="UV Map"
     style="display:none">
    <image
       width="270.93332"
       height="270.93332"
       preserveAspectRatio="none"
       xlink:href="matsuri-lantern-template.png"
       id="image1287"
       x="0"
       y="-8.8817842e-16"
       inkscape:export-filename="/Users/garykac/projects/github/shinjuku/tts/textures/matsuri-lantern.png"
       inkscape:export-xdpi="96"
       inkscape:export-ydpi="96" />
  </g>
  <g
     inkscape:groupmode="layer"
     id="layer3"
     inkscape:label="Background"
     style="display:inline">
    <rect
       style="fill:#e30000;fill-opacity:1;stroke:none;stroke-width:3;stroke-miterlimit:4;stroke-dasharray:none;stroke-opacity:1"
       id="rect9287"
       width="270.93332"
       height="270.93332"
       x="0"
       y="0" />
  </g>
  <g
     inkscape:label="Layer 1"
     inkscape:groupmode="layer"
     id="layer1"
     style="display:inline">
    <g
       id="g16986"
       transform="matrix(1.2705,0,0,1,-20.727111,0)">
      <g
         id="g14761"
         style="display:inline"
         transform="matrix(0,0.20216826,-0.26615877,0,115.15208,171.38418)">
        <path
           id="path14757"
           style="fill:#ffffff;fill-opacity:1;stroke:none;stroke-width:0.264583px;stroke-linecap:butt;stroke-linejoin:miter;stroke-opacity:1"
           d="m 278.34766,-26.298828 c -7.77069,0.357514 -15.07242,6.131402 -16.86998,13.758058 -0.84076,2.5968122 -0.50048,5.6151543 -2.24269,7.8741952 -3.07881,3.232448 -6.96068,5.55818534 -10.58111,7.9956108 -6.05849,3.8318133 -12.36085,7.234391 -18.62263,10.73737 -4.06336,-7.7267411 -10.05341,-14.22789777 -16.37983,-20.1583822 -7.27183,-6.6397098 -15.99378,-11.8553518 -25.57553,-14.3151778 -7.25537,-2.037791 -15.17372,-2.663793 -22.41363,-0.22947 -6.6167,2.225564 -11.99626,6.836749 -17.60323,10.8126411 -3.77813,2.7080316 -7.7654,5.2180644 -12.16645,6.7829673 -5.85137,-7.9657144 -13.91334,-14.5809534 -23.4375,-17.5546874 -4.19546,-1.290349 -9.04974,-1.456965 -12.917971,0.884765 -3.667835,2.260976 -5.675796,6.32005 -6.974659,10.2836438 -1.812231,5.1060494 -2.332894,10.5885727 -2.033671,15.9760938 0.0308,5.4606594 -1.302802,10.7928484 -3.333467,15.8691694 -1.861905,4.554542 -4.515638,8.859054 -8.230441,12.134833 -3.423722,3.163648 -7.1263,6.007048 -10.764542,8.916076 -13.049588,10.192831 -26.807831,19.429536 -39.991345,29.437372 -3.041753,2.703243 -4.183029,6.98799 -4.0037,10.941613 0.210547,3.855086 1.385229,7.612855 3.000547,11.098998 2.322011,4.785342 5.949926,9.178509 10.864481,11.428139 5.054224,2.34345 10.638264,3.16471 16.127003,3.76446 6.875687,0.57674 13.844567,-0.0611 20.515576,-1.81134 1.934729,2.47475 4.019457,4.82665 6.167968,7.11719 -11.126927,10.55439 -23.447332,19.75372 -35.968653,28.60659 -4.144566,2.86638 -8.457628,5.48319 -12.632956,8.30025 -3.485981,2.60267 -6.372597,6.50025 -6.580815,10.97658 -0.235375,4.64995 2.395826,9.17221 6.291242,11.62625 3.930973,2.80337 8.529729,4.43363 13.029857,6.06906 3.510273,1.14244 7.123916,1.96037 10.777341,2.48182 -0.665409,4.03036 0.252378,8.1294 1.509518,11.95043 1.993037,5.1275 6.081326,9.00397 9.960378,12.74174 3.848029,3.63607 7.958207,6.98368 12.168776,10.18869 -7.435532,7.66365 -13.993602,16.16689 -22.164021,23.1019 -4.848273,4.2804 -10.138925,8.00478 -14.995242,12.28718 -2.954913,2.714 -5.780693,5.92632 -6.74727,9.91949 -0.763686,3.60077 0.367382,7.45788 2.735455,10.23781 3.805601,5.9682 5.540487,12.96055 9.305801,18.95456 2.603282,4.27731 6.250892,7.98861 10.756224,10.24444 5.683682,2.98092 12.171671,3.9822 18.518416,4.22218 4.258684,0.0889 8.574538,-0.79874 12.312269,-2.88151 6.545314,-3.30482 11.929071,-8.39583 17.288291,-13.30228 4.04666,-3.79377 7.99235,-7.69337 11.90414,-11.62557 3.18968,0.10268 6.36496,0.57417 9.49,1.30723 7.5289,1.73977 14.86472,4.21525 22.15403,6.75644 4.54573,1.61683 9.08534,3.25436 13.58732,5.01261 4.45967,2.05542 8.28248,5.15828 11.93434,8.33315 4.97811,4.24556 9.79686,8.84595 15.67635,11.841 5.72027,2.93041 12.34144,3.31217 18.6432,2.86177 9.05944,-0.66087 18.04197,-2.54447 26.5704,-5.6715 3.47474,-1.36042 6.6827,-3.70764 8.47474,-7.04524 2.90632,-4.92448 3.59165,-10.74275 4.02592,-16.33845 0.53868,-8.46971 0.26953,-16.96402 0.15251,-25.44311 -0.30773,-14.41531 -0.79086,-28.83434 -1.94062,-43.20915 -0.33036,-3.69916 -0.70255,-7.45678 -1.4303,-11.06881 3.12487,-0.49017 6.25916,-1.01064 9.38867,-1.29883 0.49457,6.33555 3.80938,12.09722 7.96699,16.76191 3.90319,4.52959 8.33922,8.696 11.28043,13.96506 5.91085,9.42411 10.48068,19.57569 14.72313,29.81626 2.21363,5.31978 5.04748,10.38087 8.51923,14.98336 5.71865,7.67391 12.9657,14.32955 21.48894,18.75699 6.25709,3.11862 13.62233,4.39804 20.45781,2.59267 9.30999,-2.21687 17.392,-8.43658 22.65332,-16.34109 2.99768,-4.62584 4.58068,-10.23279 4.00659,-15.74756 -0.50099,-8.29787 -3.58205,-16.19499 -7.33995,-23.52212 -5.56363,-10.59 -13.34047,-19.84455 -21.864,-28.17063 -2.08725,-2.09485 -4.20193,-4.16346 -6.38077,-6.16321 5.7983,-0.51161 11.78742,-1.95427 16.41102,-5.6704 5.12001,-4.11471 8.45425,-10.67683 7.9132,-17.31788 -0.24933,-3.5521 -1.43531,-6.96905 -2.95703,-10.16406 10.03493,-1.33158 19.98026,-3.87409 29.15576,-8.2065 4.63408,-2.48601 8.75205,-6.52411 10.16814,-11.71019 1.39919,-5.49296 -1.10818,-11.52866 -5.57992,-14.87674 -3.89981,-3.26521 -8.55135,-5.43678 -12.68273,-8.37516 -21.37998,-13.81387 -42.45132,-28.10058 -63.72727,-42.079459 6.21152,-1.592332 12.5931,-2.252747 18.93666,-3.071821 5.22066,-0.659545 10.65856,-0.953798 15.46695,-3.297692 8.77018,-4.280193 14.99549,-13.661558 14.91483,-23.5004 C 358.554,53.108275 355.13965,42.291872 350.69897,32.182346 343.55045,16.143372 332.6534,1.6501917 318.61268,-8.9812481 310.52395,-15.209195 301.62689,-20.492492 292.02041,-24.006359 c -4.38872,-1.505204 -9.01735,-2.428934 -13.67275,-2.292469 z M 152.11328,37.574219 c 1.48899,0.247424 2.94173,0.466734 4.41406,0.757812 -1.56644,1.618494 -3.13122,3.23635 -4.70117,4.851563 -0.66922,-0.622845 -1.37247,-1.208451 -2.07422,-1.794922 0.65914,-1.249994 1.19532,-2.568467 1.54883,-3.9375 0.27083,0.04102 0.54167,0.08203 0.8125,0.123047 z m 122.37891,22.013672 c -1.58058,1.088854 -3.17209,2.165317 -4.71485,3.308593 -0.29932,-0.363972 -1.02294,-0.808133 -1.06325,-1.11684 2.39699,-0.944617 4.75463,-1.98666 7.08669,-3.080425 -0.4362,0.296224 -0.87239,0.592448 -1.30859,0.888672 z m -69.20313,17.248047 c 4.25187,7.035845 9.31962,13.561696 14.94532,19.550781 -14.02463,2.655565 -27.68025,6.923421 -41.30482,11.085221 -0.72619,0.26195 -1.28996,0.42204 -0.45828,-0.29299 9.17351,-10.040191 18.02934,-20.379058 26.34708,-31.137934 0.1569,0.264974 0.3138,0.529948 0.4707,0.794922 z m -85.16601,87.785152 c 1.17527,0.95481 2.42498,1.8136 3.70898,2.61524 -3.90293,0.80337 -7.78891,1.61537 -11.69726,2.38281 2.61988,-1.66537 5.18428,-3.41812 7.69531,-5.24414 0.0977,0.082 0.19531,0.16406 0.29297,0.24609 z m 51.46484,60.2461 c 0.28378,5.33329 0.28788,10.67715 0.38381,16.01614 0.0424,4.3239 0.0468,8.64811 0.0224,12.97214 -3.58003,0.623 -7.23475,0.39842 -10.85062,0.54671 -10.56911,0.21751 -21.13957,0.77049 -31.64743,1.94352 1.8961,-8.48737 2.23408,-17.29805 1.22266,-25.92773 8.18721,-0.63856 16.40121,-1.2953 24.44694,-3.0065 5.47104,-1.02756 10.90534,-2.2409 16.34603,-3.41928 0.0254,0.29166 0.0508,0.58333 0.0762,0.875 z" />
        <path
           id="path14759"
           style="fill:#000000;fill-opacity:1;stroke:none;stroke-width:0.264583px;stroke-linecap:butt;stroke-linejoin:miter;stroke-opacity:1"
           d="m 279.95914,-18.406628 c -1.81128,-0.0061 -3.41283,0.275278 -4.74493,0.8816 -7.61265,3.464968 -5.63491,9.3113354 -7.97161,15.1530798 -2.3367,5.8417443 -17.40452,14.8272362 -35.16323,24.3344312 -2.37618,1.272101 -4.40988,2.593599 -6.17016,3.940845 -0.33808,-2.764737 -1.40033,-5.656048 -3.2706,-8.962243 C 216.77213,6.5705222 204.05127,-5.7062909 194.014,-9.9311766 c -8.96112,-3.7719134 -19.27753,-6.4255124 -28.04015,-2.3362914 -8.76262,4.0892206 -15.99504,13.3078556 -29.79301,17.5250282 -1.24658,0.3809995 -2.42276,0.6812465 -3.56516,0.9585979 -1.12188,-1.7581092 -2.27505,-3.4603015 -3.44475,-5.047754 -8.17844,-11.0993142 -21.43361,-17.0312661 -25.70386,-14.0203331 -3.0211,2.130161 -5.478736,11.89720469 -5.086513,15.949931 0.948574,9.801253 -2.507673,23.189724 -9.517763,32.536515 -7.010093,9.34679 -39.853052,31.62273 -55.08346,42.851646 -4.383071,3.231504 0.473927,17.890588 7.765417,20.823536 9.388308,3.776381 21.614164,4.089281 32.129303,1.168401 1.109552,-0.30821 2.389489,-0.882865 3.787884,-1.651059 4.040513,5.831909 9.538377,11.904549 14.720548,16.768489 -3.148795,3.03112 -6.000646,5.76739 -7.993311,7.66516 -12.267663,11.68349 -37.764664,29.99937 -44.190583,33.50442 -6.425919,3.50505 -9.976018,8.67742 -1.097608,13.16508 8.626951,4.36055 18.163484,7.14475 33.923512,6.28386 15.772709,-0.86157 32.778914,-10.99897 44.462404,-19.76159 0.9691,-0.72682 2.26967,-1.80676 3.70727,-3.03495 2.23679,4.84363 7.28891,7.37111 11.68145,9.56737 5.84174,2.92087 39.13989,-4.08954 53.16007,-7.01042 12.57826,-2.62047 64.16233,-13.69813 88.47521,-16.37213 3.20894,2.95095 6.17519,5.54706 8.72299,7.56543 -13.95023,0.78541 -29.23116,4.52174 -46.95941,7.05435 -24.53532,3.50505 -80.03152,14.60432 -112.16111,21.03024 -19.86193,4.6734 -39.139773,7.00985 -50.823259,5.8415 -11.683487,-1.16835 -9.931122,4.67337 -8.762772,10.51512 1.139936,5.69969 14.515057,16.94639 27.644309,26.17205 -7.55527,5.18679 -14.954652,16.25675 -27.059848,27.57248 -10.60038,9.90905 -25.11998,17.52501 -21.030757,22.78258 4.08922,5.25756 5.011224,10.05027 9.347231,18.69344 5.328441,10.62144 14.291331,12.06106 24.222294,12.64521 9.930966,0.58417 21.34321,-12.06077 33.610872,-23.74427 1.33991,-1.27611 2.54711,-2.67795 3.63285,-4.17753 1.35366,0.0577 2.8646,0.0884 4.54546,0.0884 11.09931,0 32.71386,8.17801 45.5657,12.8514 12.85183,4.67341 22.19833,18.6936 32.1293,22.19864 9.93096,3.50504 31.3006,-1.49455 37.97132,-4.67309 5.77088,-2.74977 6.42597,-14.00715 6.42597,-26.87225 0,-15.78353 -1.168,-59.00145 -3.5047,-67.17989 -0.69126,-2.41941 -2.25828,-4.63306 -4.61212,-6.70398 12.61575,-2.87141 23.06423,-4.14098 32.06006,-4.38216 -5.82688,8.75755 0.0123,16.93219 8.18658,25.10648 8.17845,8.17844 18.10916,28.62441 22.7826,40.89207 4.67339,12.26766 17.52563,27.45615 30.37747,31.54536 12.85182,4.08922 25.70356,-5.84192 30.37695,-15.18872 4.67341,-9.34678 -2.46647,-33.26252 -25.70385,-54.91242 -9.36662,-10.40735 -22.32284,-18.71982 -34.33228,-23.97477 1.88087,0.4336 3.74176,0.87739 5.57228,1.32809 20.65872,5.08647 34.67421,3.57537 39.85956,-1.30431 9.07143,-8.53666 2.92055,-16.35655 -1.75286,-25.70334 -0.37732,-0.75468 -0.85905,-1.54679 -1.41851,-2.3611 0.279,0.009 0.5615,0.0243 0.83457,0.0243 15.18854,0 32.12928,-5.25796 37.38687,-8.17883 5.25756,-2.92087 11.0993,-9.34676 0,-15.77268 -11.09932,-6.42592 -65.42728,-43.22886 -81.78416,-53.744007 -0.93396,-0.6004 -1.93135,-1.282229 -2.97138,-2.021064 2.15934,-1.406184 4.46876,-2.753233 7.06054,-3.820441 9.93098,-4.08922 24.53513,-5.257614 34.46611,-6.425964 9.93097,-1.168347 16.33855,-9.728684 16.49253,-17.672823 0.27133,-13.996947 -7.72969,-36.071534 -22.33403,-53.596767 -12.77882,-15.3345785 -35.73621,-29.462688 -48.41513,-29.505692 z M 143.05535,28.312483 c 12.18809,1.497621 27.47361,3.627453 26.0749,7.599537 -0.82249,2.33571 -8.05839,8.76173 -17.14831,18.65054 -3.64082,-4.103296 -8.14215,-8.24909 -13.16354,-11.391551 2.68091,-3.193423 4.58079,-6.052336 4.9568,-8.120436 0.30286,-1.665726 0.0124,-4.002296 -0.71985,-6.73809 z m 151.5003,10.277408 c 0.39386,0.01984 0.72149,0.367054 1.10485,1.133782 1.75254,3.505047 -0.58423,8.178533 -1.1684,12.851929 -0.58418,4.673396 -15.1883,12.851686 -22.78259,18.693432 -0.83402,0.641556 -1.63485,1.29178 -2.41019,1.948201 -5.65662,-5.089226 -11.23742,-10.297819 -16.35145,-15.159281 11.06261,-1.594218 20.51618,-7.174108 29.27677,-11.323857 8.67135,-4.107476 10.92443,-8.215069 12.33101,-8.144206 z m -88.33826,22.436357 c 5.27081,12.959781 13.37448,23.553195 21.67878,31.857487 2.1837,2.183699 5.40572,5.517517 8.98705,9.230445 -9.18597,0.42574 -19.19666,2.86175 -27.68048,4.78989 -11.60244,2.63691 -36.05853,11.46168 -56.17797,15.73185 17.00898,-17.43948 35.97085,-38.33916 48.5836,-55.456043 1.61566,-2.192631 3.13556,-4.211079 4.60902,-6.153629 z m -91.00272,5.367115 c 3.90943,5.581552 8.52249,10.51619 12.87415,13.942301 -3.42801,3.45898 -7.01017,7.039978 -10.75386,10.74043 -3.56056,-5.7188 -7.59458,-11.40605 -11.4298,-15.731339 3.55621,-3.384024 6.74834,-6.489888 9.30951,-8.951392 z m 61.91767,148.220927 c 1.12754,2.54446 2.02647,5.1961 2.27738,7.9561 0.58418,6.42592 0.58446,25.70368 0.58446,32.71377 0,7.01008 -8.17846,7.00991 -16.94108,7.00991 -7.97974,0 -32.42588,0.9703 -45.11353,3.79045 5.76931,-11.83963 6.1485,-26.96576 4.80539,-35.91976 -0.38568,-2.57121 -1.16307,-4.78532 -2.25774,-6.66988 5.28261,-0.52292 10.70307,-1.30197 16.27756,-1.50843 7.88422,-0.29201 22.92139,-3.35757 40.36756,-7.37216 z"
           sodipodi:nodetypes="sssscsssscsssssssccssssscssccscsscssssscssssssccssssccssscsssscssssscsccscscssccsscscscscccccccssscscsc" />
      </g>
      <g
         id="g14767"
         style="display:inline"
         transform="matrix(0,0.20216826,-0.26615877,0,115.15208,53.379962)">
        <path
           id="path14763"
           style="fill:#ffffff;fill-opacity:1;stroke:none;stroke-width:0.264583px;stroke-linecap:butt;stroke-linejoin:miter;stroke-opacity:1"
           d="m 278.34766,-26.298828 c -7.77069,0.357514 -15.07242,6.131402 -16.86998,13.758058 -0.84076,2.5968122 -0.50048,5.6151543 -2.24269,7.8741952 -3.07881,3.232448 -6.96068,5.55818534 -10.58111,7.9956108 -6.05849,3.8318133 -12.36085,7.234391 -18.62263,10.73737 -4.06336,-7.7267411 -10.05341,-14.22789777 -16.37983,-20.1583822 -7.27183,-6.6397098 -15.99378,-11.8553518 -25.57553,-14.3151778 -7.25537,-2.037791 -15.17372,-2.663793 -22.41363,-0.22947 -6.6167,2.225564 -11.99626,6.836749 -17.60323,10.8126411 -3.77813,2.7080316 -7.7654,5.2180644 -12.16645,6.7829673 -5.85137,-7.9657144 -13.91334,-14.5809534 -23.4375,-17.5546874 -4.19546,-1.290349 -9.04974,-1.456965 -12.917971,0.884765 -3.667835,2.260976 -5.675796,6.32005 -6.974659,10.2836438 -1.812231,5.1060494 -2.332894,10.5885727 -2.033671,15.9760938 0.0308,5.4606594 -1.302802,10.7928484 -3.333467,15.8691694 -1.861905,4.554542 -4.515638,8.859054 -8.230441,12.134833 -3.423722,3.163648 -7.1263,6.007048 -10.764542,8.916076 -13.049588,10.192831 -26.807831,19.429536 -39.991345,29.437372 -3.041753,2.703243 -4.183029,6.98799 -4.0037,10.941613 0.210547,3.855086 1.385229,7.612855 3.000547,11.098998 2.322011,4.785342 5.949926,9.178509 10.864481,11.428139 5.054224,2.34345 10.638264,3.16471 16.127003,3.76446 6.875687,0.57674 13.844567,-0.0611 20.515576,-1.81134 1.934729,2.47475 4.019457,4.82665 6.167968,7.11719 -11.126927,10.55439 -23.447332,19.75372 -35.968653,28.60659 -4.144566,2.86638 -8.457628,5.48319 -12.632956,8.30025 -3.485981,2.60267 -6.372597,6.50025 -6.580815,10.97658 -0.235375,4.64995 2.395826,9.17221 6.291242,11.62625 3.930973,2.80337 8.529729,4.43363 13.029857,6.06906 3.510273,1.14244 7.123916,1.96037 10.777341,2.48182 -0.665409,4.03036 0.252378,8.1294 1.509518,11.95043 1.993037,5.1275 6.081326,9.00397 9.960378,12.74174 3.848029,3.63607 7.958207,6.98368 12.168776,10.18869 -7.435532,7.66365 -13.993602,16.16689 -22.164021,23.1019 -4.848273,4.2804 -10.138925,8.00478 -14.995242,12.28718 -2.954913,2.714 -5.780693,5.92632 -6.74727,9.91949 -0.763686,3.60077 0.367382,7.45788 2.735455,10.23781 3.805601,5.9682 5.540487,12.96055 9.305801,18.95456 2.603282,4.27731 6.250892,7.98861 10.756224,10.24444 5.683682,2.98092 12.171671,3.9822 18.518416,4.22218 4.258684,0.0889 8.574538,-0.79874 12.312269,-2.88151 6.545314,-3.30482 11.929071,-8.39583 17.288291,-13.30228 4.04666,-3.79377 7.99235,-7.69337 11.90414,-11.62557 3.18968,0.10268 6.36496,0.57417 9.49,1.30723 7.5289,1.73977 14.86472,4.21525 22.15403,6.75644 4.54573,1.61683 9.08534,3.25436 13.58732,5.01261 4.45967,2.05542 8.28248,5.15828 11.93434,8.33315 4.97811,4.24556 9.79686,8.84595 15.67635,11.841 5.72027,2.93041 12.34144,3.31217 18.6432,2.86177 9.05944,-0.66087 18.04197,-2.54447 26.5704,-5.6715 3.47474,-1.36042 6.6827,-3.70764 8.47474,-7.04524 2.90632,-4.92448 3.59165,-10.74275 4.02592,-16.33845 0.53868,-8.46971 0.26953,-16.96402 0.15251,-25.44311 -0.30773,-14.41531 -0.79086,-28.83434 -1.94062,-43.20915 -0.33036,-3.69916 -0.70255,-7.45678 -1.4303,-11.06881 3.12487,-0.49017 6.25916,-1.01064 9.38867,-1.29883 0.49457,6.33555 3.80938,12.09722 7.96699,16.76191 3.90319,4.52959 8.33922,8.696 11.28043,13.96506 5.91085,9.42411 10.48068,19.57569 14.72313,29.81626 2.21363,5.31978 5.04748,10.38087 8.51923,14.98336 5.71865,7.67391 12.9657,14.32955 21.48894,18.75699 6.25709,3.11862 13.62233,4.39804 20.45781,2.59267 9.30999,-2.21687 17.392,-8.43658 22.65332,-16.34109 2.99768,-4.62584 4.58068,-10.23279 4.00659,-15.74756 -0.50099,-8.29787 -3.58205,-16.19499 -7.33995,-23.52212 -5.56363,-10.59 -13.34047,-19.84455 -21.864,-28.17063 -2.08725,-2.09485 -4.20193,-4.16346 -6.38077,-6.16321 5.7983,-0.51161 11.78742,-1.95427 16.41102,-5.6704 5.12001,-4.11471 8.45425,-10.67683 7.9132,-17.31788 -0.24933,-3.5521 -1.43531,-6.96905 -2.95703,-10.16406 10.03493,-1.33158 19.98026,-3.87409 29.15576,-8.2065 4.63408,-2.48601 8.75205,-6.52411 10.16814,-11.71019 1.39919,-5.49296 -1.10818,-11.52866 -5.57992,-14.87674 -3.89981,-3.26521 -8.55135,-5.43678 -12.68273,-8.37516 -21.37998,-13.81387 -42.45132,-28.10058 -63.72727,-42.079459 6.21152,-1.592332 12.5931,-2.252747 18.93666,-3.071821 5.22066,-0.659545 10.65856,-0.953798 15.46695,-3.297692 8.77018,-4.280193 14.99549,-13.661558 14.91483,-23.5004 C 358.554,53.108275 355.13965,42.291872 350.69897,32.182346 343.55045,16.143372 332.6534,1.6501917 318.61268,-8.9812481 310.52395,-15.209195 301.62689,-20.492492 292.02041,-24.006359 c -4.38872,-1.505204 -9.01735,-2.428934 -13.67275,-2.292469 z M 152.11328,37.574219 c 1.48899,0.247424 2.94173,0.466734 4.41406,0.757812 -1.56644,1.618494 -3.13122,3.23635 -4.70117,4.851563 -0.66922,-0.622845 -1.37247,-1.208451 -2.07422,-1.794922 0.65914,-1.249994 1.19532,-2.568467 1.54883,-3.9375 0.27083,0.04102 0.54167,0.08203 0.8125,0.123047 z m 122.37891,22.013672 c -1.58058,1.088854 -3.17209,2.165317 -4.71485,3.308593 -0.29932,-0.363972 -1.02294,-0.808133 -1.06325,-1.11684 2.39699,-0.944617 4.75463,-1.98666 7.08669,-3.080425 -0.4362,0.296224 -0.87239,0.592448 -1.30859,0.888672 z m -69.20313,17.248047 c 4.25187,7.035845 9.31962,13.561696 14.94532,19.550781 -14.02463,2.655565 -27.68025,6.923421 -41.30482,11.085221 -0.72619,0.26195 -1.28996,0.42204 -0.45828,-0.29299 9.17351,-10.040191 18.02934,-20.379058 26.34708,-31.137934 0.1569,0.264974 0.3138,0.529948 0.4707,0.794922 z m -85.16601,87.785152 c 1.17527,0.95481 2.42498,1.8136 3.70898,2.61524 -3.90293,0.80337 -7.78891,1.61537 -11.69726,2.38281 2.61988,-1.66537 5.18428,-3.41812 7.69531,-5.24414 0.0977,0.082 0.19531,0.16406 0.29297,0.24609 z m 51.46484,60.2461 c 0.28378,5.33329 0.28788,10.67715 0.38381,16.01614 0.0424,4.3239 0.0468,8.64811 0.0224,12.97214 -3.58003,0.623 -7.23475,0.39842 -10.85062,0.54671 -10.56911,0.21751 -21.13957,0.77049 -31.64743,1.94352 1.8961,-8.48737 2.23408,-17.29805 1.22266,-25.92773 8.18721,-0.63856 16.40121,-1.2953 24.44694,-3.0065 5.47104,-1.02756 10.90534,-2.2409 16.34603,-3.41928 0.0254,0.29166 0.0508,0.58333 0.0762,0.875 z" />
        <path
           id="path14765"
           style="fill:#000000;fill-opacity:1;stroke:none;stroke-width:0.264583px;stroke-linecap:butt;stroke-linejoin:miter;stroke-opacity:1"
           d="m 279.95914,-18.406628 c -1.81128,-0.0061 -3.41283,0.275278 -4.74493,0.8816 -7.61265,3.464968 -5.63491,9.3113354 -7.97161,15.1530798 -2.3367,5.8417443 -17.40452,14.8272362 -35.16323,24.3344312 -2.37618,1.272101 -4.40988,2.593599 -6.17016,3.940845 -0.33808,-2.764737 -1.40033,-5.656048 -3.2706,-8.962243 C 216.77213,6.5705222 204.05127,-5.7062909 194.014,-9.9311766 c -8.96112,-3.7719134 -19.27753,-6.4255124 -28.04015,-2.3362914 -8.76262,4.0892206 -15.99504,13.3078556 -29.79301,17.5250282 -1.24658,0.3809995 -2.42276,0.6812465 -3.56516,0.9585979 -1.12188,-1.7581092 -2.27505,-3.4603015 -3.44475,-5.047754 -8.17844,-11.0993142 -21.43361,-17.0312661 -25.70386,-14.0203331 -3.0211,2.130161 -5.478736,11.89720469 -5.086513,15.949931 0.948574,9.801253 -2.507673,23.189724 -9.517763,32.536515 -7.010093,9.34679 -39.853052,31.62273 -55.08346,42.851646 -4.383071,3.231504 0.473927,17.890588 7.765417,20.823536 9.388308,3.776381 21.614164,4.089281 32.129303,1.168401 1.109552,-0.30821 2.389489,-0.882865 3.787884,-1.651059 4.040513,5.831909 9.538377,11.904549 14.720548,16.768489 -3.148795,3.03112 -6.000646,5.76739 -7.993311,7.66516 -12.267663,11.68349 -37.764664,29.99937 -44.190583,33.50442 -6.425919,3.50505 -9.976018,8.67742 -1.097608,13.16508 8.626951,4.36055 18.163484,7.14475 33.923512,6.28386 15.772709,-0.86157 32.778914,-10.99897 44.462404,-19.76159 0.9691,-0.72682 2.26967,-1.80676 3.70727,-3.03495 2.23679,4.84363 7.28891,7.37111 11.68145,9.56737 5.84174,2.92087 39.13989,-4.08954 53.16007,-7.01042 12.57826,-2.62047 64.16233,-13.69813 88.47521,-16.37213 3.20894,2.95095 6.17519,5.54706 8.72299,7.56543 -13.95023,0.78541 -29.23116,4.52174 -46.95941,7.05435 -24.53532,3.50505 -80.03152,14.60432 -112.16111,21.03024 -19.86193,4.6734 -39.139773,7.00985 -50.823259,5.8415 -11.683487,-1.16835 -9.931122,4.67337 -8.762772,10.51512 1.139936,5.69969 14.515057,16.94639 27.644309,26.17205 -7.55527,5.18679 -14.954652,16.25675 -27.059848,27.57248 -10.60038,9.90905 -25.11998,17.52501 -21.030757,22.78258 4.08922,5.25756 5.011224,10.05027 9.347231,18.69344 5.328441,10.62144 14.291331,12.06106 24.222294,12.64521 9.930966,0.58417 21.34321,-12.06077 33.610872,-23.74427 1.33991,-1.27611 2.54711,-2.67795 3.63285,-4.17753 1.35366,0.0577 2.8646,0.0884 4.54546,0.0884 11.09931,0 32.71386,8.17801 45.5657,12.8514 12.85183,4.67341 22.19833,18.6936 32.1293,22.19864 9.93096,3.50504 31.3006,-1.49455 37.97132,-4.67309 5.77088,-2.74977 6.42597,-14.00715 6.42597,-26.87225 0,-15.78353 -1.168,-59.00145 -3.5047,-67.17989 -0.69126,-2.41941 -2.25828,-4.63306 -4.61212,-6.70398 12.61575,-2.87141 23.06423,-4.14098 32.06006,-4.38216 -5.82688,8.75755 0.0123,16.93219 8.18658,25.10648 8.17845,8.17844 18.10916,28.62441 22.7826,40.89207 4.67339,12.26766 17.52563,27.45615 30.37747,31.54536 12.85182,4.08922 25.70356,-5.84192 30.37695,-15.18872 4.67341,-9.34678 -2.46647,-33.26252 -25.70385,-54.91242 -9.36662,-10.40735 -22.32284,-18.71982 -34.33228,-23.97477 1.88087,0.4336 3.74176,0.87739 5.57228,1.32809 20.65872,5.08647 34.67421,3.57537 39.85956,-1.30431 9.07143,-8.53666 2.92055,-16.35655 -1.75286,-25.70334 -0.37732,-0.75468 -0.85905,-1.54679 -1.41851,-2.3611 0.279,0.009 0.5615,0.0243 0.83457,0.0243 15.18854,0 32.12928,-5.25796 37.38687,-8.17883 5.25756,-2.92087 11.0993,-9.34676 0,-15.77268 -11.09932,-6.42592 -65.42728,-43.22886 -81.78416,-53.744007 -0.93396,-0.6004 -1.93135,-1.282229 -2.97138,-2.021064 2.15934,-1.406184 4.46876,-2.753233 7.06054,-3.820441 9.93098,-4.08922 24.53513,-5.257614 34.46611,-6.425964 9.93097,-1.168347 16.33855,-9.728684 16.49253,-17.672823 0.27133,-13.996947 -7.72969,-36.071534 -22.33403,-53.596767 -12.77882,-15.3345785 -35.73621,-29.462688 -48.41513,-29.505692 z M 143.05535,28.312483 c 12.18809,1.497621 27.47361,3.627453 26.0749,7.599537 -0.82249,2.33571 -8.05839,8.76173 -17.14831,18.65054 -3.64082,-4.103296 -8.14215,-8.24909 -13.16354,-11.391551 2.68091,-3.193423 4.58079,-6.052336 4.9568,-8.120436 0.30286,-1.665726 0.0124,-4.002296 -0.71985,-6.73809 z m 151.5003,10.277408 c 0.39386,0.01984 0.72149,0.367054 1.10485,1.133782 1.75254,3.505047 -0.58423,8.178533 -1.1684,12.851929 -0.58418,4.673396 -15.1883,12.851686 -22.78259,18.693432 -0.83402,0.641556 -1.63485,1.29178 -2.41019,1.948201 -5.65662,-5.089226 -11.23742,-10.297819 -16.35145,-15.159281 11.06261,-1.594218 20.51618,-7.174108 29.27677,-11.323857 8.67135,-4.107476 10.92443,-8.215069 12.33101,-8.144206 z m -88.33826,22.436357 c 5.27081,12.959781 13.37448,23.553195 21.67878,31.857487 2.1837,2.183699 5.40572,5.517517 8.98705,9.230445 -9.18597,0.42574 -19.19666,2.86175 -27.68048,4.78989 -11.60244,2.63691 -36.05853,11.46168 -56.17797,15.73185 17.00898,-17.43948 35.97085,-38.33916 48.5836,-55.456043 1.61566,-2.192631 3.13556,-4.211079 4.60902,-6.153629 z m -91.00272,5.367115 c 3.90943,5.581552 8.52249,10.51619 12.87415,13.942301 -3.42801,3.45898 -7.01017,7.039978 -10.75386,10.74043 -3.56056,-5.7188 -7.59458,-11.40605 -11.4298,-15.731339 3.55621,-3.384024 6.74834,-6.489888 9.30951,-8.951392 z m 61.91767,148.220927 c 1.12754,2.54446 2.02647,5.1961 2.27738,7.9561 0.58418,6.42592 0.58446,25.70368 0.58446,32.71377 0,7.01008 -8.17846,7.00991 -16.94108,7.00991 -7.97974,0 -32.42588,0.9703 -45.11353,3.79045 5.76931,-11.83963 6.1485,-26.96576 4.80539,-35.91976 -0.38568,-2.57121 -1.16307,-4.78532 -2.25774,-6.66988 5.28261,-0.52292 10.70307,-1.30197 16.27756,-1.50843 7.88422,-0.29201 22.92139,-3.35757 40.36756,-7.37216 z"
           sodipodi:nodetypes="sssscsssscsssssssccssssscssccscsscssssscssssssccssssccssscsssscssssscsccscscssccsscscscscccccccssscscsc" />
      </g>
    </g>
    <path
       style="display:inline;fill:#000000;fill-opacity:0.993266;stroke:none;stroke-width:3;stroke-linecap:butt;stroke-linejoin:miter;stroke-miterlimit:4;stroke-dasharray:none;stroke-opacity:1"
       d="m 231.25414,77.247999 c -2.0864,-3.866316 -5.09469,-6.960003 -8.91344,-8.811806 -3.78412,-1.835007 -8.10004,-2.392815 -13.00529,-0.585618 -4.46693,1.645711 -10.3899,6.805854 -10.22358,15.077191 0.15597,7.756134 5.08537,11.6759 9.37161,13.760515 6.23736,3.033539 14.69294,0.413814 18.14943,-2.917327 2.20892,-2.128818 5.17428,-5.764744 6.37148,-8.651733 1.07636,-2.595602 -0.41359,-5.394328 -1.75021,-7.871222 z"
       id="path1935-1"
       sodipodi:nodetypes="ssssssss" />
    <path
       style="display:inline;fill:#000000;fill-opacity:1;stroke:none;stroke-width:3;stroke-linecap:butt;stroke-linejoin:miter;stroke-miterlimit:4;stroke-dasharray:none;stroke-opacity:1"
       d="m 230.11231,205.03796 c -4.07579,-8.09925 -12.67177,-12.08241 -21.97219,-9.14185 -4.53898,1.43511 -10.04878,6.51377 -9.88246,14.7851 0.15597,7.75613 4.48526,11.62742 8.92387,13.74616 6.60931,3.15492 13.77574,0.72254 17.86436,-2.81331 2.32042,-2.00671 5.09428,-5.99569 6.26057,-8.61124 1.1663,-2.61554 0.6155,-4.3688 -1.19415,-7.96486 z"
       id="path1935-1-5"
       sodipodi:nodetypes="sssssss" />
  </g>
  <g
     inkscape:groupmode="layer"
     id="layer4"
     inkscape:label="Matsuri Kanji Strokes"
     style="display:none">
    <path
       style="fill:#e30000;fill-opacity:0.738095;stroke:none;stroke-width:0.264583px;stroke-linecap:butt;stroke-linejoin:miter;stroke-opacity:1"
       d="m 136.11265,123.84498 c 21.03027,-3.50504 49.65482,-14.02019 62.50666,-16.94106 12.85184,-2.92087 29.20872,-7.01009 40.89221,-3.50504 11.68349,3.50504 31.42181,13.43601 31.42181,19.27775 0,5.84175 19.15414,15.77271 0,16.35689 -19.15415,0.58417 -81.66081,14.02018 -95.681,16.94105 -14.02018,2.92088 -47.31813,9.93097 -53.15987,7.0101 -5.84175,-2.92087 -12.85184,-6.42592 -12.85184,-15.18854 0,-8.76261 8.17844,-20.4461 26.87203,-23.95115 z"
       id="path10735" />
    <path
       style="fill:#e30000;fill-opacity:0.738095;stroke:none;stroke-width:0.264583px;stroke-linecap:butt;stroke-linejoin:miter;stroke-opacity:1"
       d="M 23.195877,78.485912 C 38.426286,67.256995 71.269282,44.981431 78.279375,35.634641 85.289468,26.28785 88.745839,12.899306 87.797267,3.0980529 87.405042,-0.95467355 89.862636,-10.721677 92.883735,-12.851838 97.153988,-15.862771 110.40897,-9.9309654 118.58741,1.1683489 126.76585,12.267663 134.36012,28.624548 133.19177,35.050468 132.02342,41.476384 116.25071,55.496573 107.4881,63.675013 98.725481,71.853456 73.605979,97.557131 63.09084,100.478 52.5757,103.39888 40.349552,103.08603 30.961245,99.309654 23.669755,96.376706 18.812806,81.717416 23.195877,78.485912 Z"
       id="path10869"
       sodipodi:nodetypes="ssssssssss" />
    <path
       style="fill:#e30000;fill-opacity:0.738095;stroke:none;stroke-width:0.264583px;stroke-linecap:butt;stroke-linejoin:miter;stroke-opacity:1"
       d="m 125.59751,5.25757 c 13.79797,-4.2171726 21.03027,-13.4360122 29.79289,-17.525233 8.76262,-4.089221 19.07926,-1.435216 28.04038,2.3366976 10.03727,4.2248857 22.75806,16.5014618 28.62454,26.8720244 8.94588,15.814226 -0.35375,22.178686 -21.03028,50.239001 -24.40214,33.11638 -72.63809,80.50977 -84.32157,89.27238 -11.683492,8.76262 -28.689346,18.90013 -44.462055,19.7617 -15.760028,0.86089 -25.296682,-1.92362 -33.923632,-6.28417 -8.878411,-4.48766 -5.328443,-9.65963 1.097476,-13.16468 6.425919,-3.50505 31.923057,-21.82099 44.19072,-33.50448 12.267663,-11.68349 50.942981,-49.022591 60.641751,-60.576964 12.19425,-14.527295 23.26958,-23.847196 24.29943,-26.771797 1.48285,-4.211012 -15.83142,-6.361125 -28.27626,-7.871677 -9.56425,-1.160906 -23.98659,-10.202293 -21.06572,-15.459863 2.92088,-5.2575704 8.70518,-4.9734592 16.39233,-7.322939 z"
       id="path10904"
       sodipodi:nodetypes="sssssssssssssss" />
    <path
       style="fill:#e30000;fill-opacity:0.738095;stroke:none;stroke-width:0.264583px;stroke-linecap:butt;stroke-linejoin:miter;stroke-opacity:1"
       d="m 221.49626,21.962736 c 17.7587,-9.507196 32.82616,-18.4931255 35.16286,-24.3348699 2.3367,-5.8417446 0.35926,-11.6881311 7.97191,-15.1530991 10.65687,-4.850577 38.55551,11.0993141 53.15988,28.624547 14.60433,17.525234 22.60561,39.599315 22.33428,53.596223 -0.154,7.944138 -6.56157,16.504711 -16.49255,17.673058 -9.93098,1.16835 -24.53531,2.3367 -34.46629,6.42592 -9.93098,4.08922 -15.77271,12.267665 -24.53532,12.267665 -8.76263,0 -18.69359,-2.336699 -17.52524,-9.930968 1.16835,-7.594267 6.42592,-14.020186 14.02018,-19.86193 7.59428,-5.841746 22.19864,-14.020186 22.78282,-18.693582 0.58417,-4.673396 2.92087,-9.346792 1.16834,-12.851839 -1.75252,-3.505046 -2.33669,1.752523 -13.43601,7.010093 -11.09932,5.25757 -23.30827,12.816402 -38.4968,11.648055 -15.18854,-1.16835 -17.58395,-0.548739 -22.84152,-5.222135 -5.25757,-4.673397 -10.03192,-19.834038 11.19346,-31.197138 z"
       id="path10991"
       sodipodi:nodetypes="ssssssssssssssss" />
    <path
       style="fill:#e30000;fill-opacity:0.738095;stroke:none;stroke-width:0.264583px;stroke-linecap:butt;stroke-linejoin:miter;stroke-opacity:1"
       d="m 190.78307,44.0257 c 3.55343,20.965265 14.84633,37.174548 26.52982,48.858035 11.68349,11.683485 47.90232,50.823175 60.16996,57.833265 12.26767,7.0101 36.80299,21.61446 51.99153,21.61446 15.18853,0 32.12959,-5.25757 37.38718,-8.17844 5.25756,-2.92087 11.0993,-9.34679 0,-15.77271 C 355.76224,141.95439 301.43402,105.1514 285.07713,94.636258 268.72025,84.121119 234.90792,51.062889 225.24936,41.43487 214.04374,30.264683 215.97952,19.932803 203.2927,19.861931 194.45268,19.812548 188.44019,30.202657 190.78307,44.0257 Z"
       id="path11026"
       sodipodi:nodetypes="ssssssssss" />
    <path
       style="fill:#e30000;fill-opacity:0.738095;stroke:none;stroke-width:0.264583px;stroke-linecap:butt;stroke-linejoin:miter;stroke-opacity:1"
       d="m 113.32984,175.25233 c 32.12959,-6.42592 87.62617,-17.52523 112.16149,-21.03028 24.53533,-3.50505 44.39727,-9.34679 62.50667,-6.42592 18.10941,2.92087 37.38716,17.52524 42.06055,26.87203 4.67341,9.34679 10.82394,17.16701 1.75252,25.70367 -5.18536,4.87968 -19.20079,6.39049 -39.85952,1.30402 -17.06422,-4.20146 -35.49897,-8.31411 -70.54944,-0.13567 -35.05046,8.17844 -79.44772,19.86193 -95.22043,20.44611 -15.77271,0.58417 -30.377072,5.84174 -43.813085,-3.50505 -13.436012,-9.34679 -27.456198,-21.03028 -28.624545,-26.87202 -1.16835,-5.84175 -2.920873,-11.68349 8.762616,-10.51514 11.683487,1.16835 30.961245,-1.16835 50.823174,-5.84175 z"
       id="path11061"
       sodipodi:nodetypes="cssssssssssc" />
    <path
       style="fill:#e30000;fill-opacity:0.738095;stroke:none;stroke-width:0.264583px;stroke-linecap:butt;stroke-linejoin:miter;stroke-opacity:1"
       d="m 320.71177,224.32298 c 23.23739,21.6499 30.37708,45.56562 25.70367,54.91239 -4.67339,9.34681 -17.52524,19.27776 -30.37706,15.18854 -12.85184,-4.08921 -25.70368,-19.27775 -30.37707,-31.54541 -4.67342,-12.26766 -14.60437,-32.71377 -22.78281,-40.89221 -8.17844,-8.17845 -14.02019,-16.35689 -8.17844,-25.1195 5.84174,-8.76262 44.98144,4.08922 66.01171,27.45619 z"
       id="path11096"
       sodipodi:nodetypes="csssssc" />
    <path
       style="fill:#e30000;fill-opacity:0.738095;stroke:none;stroke-width:0.264583px;stroke-linecap:butt;stroke-linejoin:miter;stroke-opacity:1"
       d="m 230.7489,275.14616 c 0,12.86511 -0.65504,24.12227 -6.42592,26.87203 -6.67072,3.17853 -28.04037,8.17843 -37.97133,4.67339 -9.93097,-3.50504 -19.27776,-17.52523 -32.1296,-22.19862 -12.85184,-4.67341 -34.46629,-12.85184 -45.5656,-12.85184 -11.099319,0 -15.772715,-1.16835 -4.6734,-4.67339 11.09931,-3.50506 39.72386,-4.67341 48.48648,-4.67341 8.76262,0 16.94106,0 16.94106,-7.01009 0,-7.01009 0,-26.28785 -0.58418,-32.71377 -0.58417,-6.42592 -4.67339,-12.26766 -7.01009,-17.52523 -2.3367,-5.25757 12.26766,-22.7828 31.54542,-16.94106 19.27776,5.84175 31.54542,11.68349 33.88212,19.86193 2.3367,8.17844 3.50504,51.39654 3.50504,67.18006 z"
       id="path11131"
       sodipodi:nodetypes="sssssssssssss" />
    <path
       style="fill:#e30000;fill-opacity:0.738095;stroke:none;stroke-width:0.264583px;stroke-linecap:butt;stroke-linejoin:miter;stroke-opacity:1"
       d="m 54.328223,245.35327 c 16.29512,-15.23239 24.063541,-30.02879 35.162854,-30.61297 11.099313,-0.58417 20.917893,3.74094 22.670413,15.42443 1.75253,11.68349 0.58418,33.88212 -11.68349,45.5656 -12.267659,11.6835 -23.67982,24.3288 -33.610786,23.74463 -9.930963,-0.58417 -20.13326,-3.8827 -24.22248,-12.6453 -4.08922,-8.76263 -5.25757,-13.43602 -9.34679,-18.69358 -4.089222,-5.25758 10.4299,-12.87376 21.030279,-22.78281 z"
       id="path11166"
       sodipodi:nodetypes="ssssssss" />
    <path
       style="fill:#e30000;fill-opacity:0.738095;stroke:none;stroke-width:0.264583px;stroke-linecap:butt;stroke-linejoin:miter;stroke-opacity:1"
       d="m 61.167217,87.496583 c 3.02549,12.774297 25.432344,34.595877 33.026613,37.516747 7.59427,2.92087 23.22523,-3.50505 23.22523,-11.09931 0,-7.59427 -22.782802,-46.149784 -32.713765,-46.149784 -9.930966,0 -25.830788,10.052015 -23.538078,19.732347 z"
       id="path11201"
       sodipodi:nodetypes="sssss" />
    <path
       style="fill:#e30000;fill-opacity:0.738095;stroke:none;stroke-width:0.264583px;stroke-linecap:butt;stroke-linejoin:miter;stroke-opacity:1"
       d="m 97.486257,53.254025 c 6.167653,16.035893 22.269503,32.035443 30.447943,32.035443 8.17845,0 23.95115,-11.099314 22.7828,-16.356884 C 149.54866,63.675014 136.11264,44.397257 119.75576,39.139688 105.80757,34.656342 91.580869,37.90002 97.486257,53.254025 Z"
       id="path11611"
       sodipodi:nodetypes="sssss" />
  </g>
  <g
     inkscape:groupmode="layer"
     id="g12871"
     inkscape:label="Matsuri Kanji Outine"
     style="display:none">
    <g
       id="g13300">
      <path
         id="path13245"
         style="fill:#e30000;fill-opacity:0.738095;stroke:none;stroke-width:0.264583px;stroke-linecap:butt;stroke-linejoin:miter;stroke-opacity:1"
         d="m 278.34766,-26.298828 c -7.77069,0.357514 -15.07242,6.131402 -16.86998,13.758058 -0.84076,2.5968122 -0.50048,5.6151543 -2.24269,7.8741952 -3.07881,3.232448 -6.96068,5.55818534 -10.58111,7.9956108 -6.05849,3.8318133 -12.36085,7.234391 -18.62263,10.73737 -4.06336,-7.7267411 -10.05341,-14.22789777 -16.37983,-20.1583822 -7.27183,-6.6397098 -15.99378,-11.8553518 -25.57553,-14.3151778 -7.25537,-2.037791 -15.17372,-2.663793 -22.41363,-0.22947 -6.6167,2.225564 -11.99626,6.836749 -17.60323,10.8126411 -3.77813,2.7080316 -7.7654,5.2180644 -12.16645,6.7829673 -5.85137,-7.9657144 -13.91334,-14.5809534 -23.4375,-17.5546874 -4.19546,-1.290349 -9.04974,-1.456965 -12.917971,0.884765 -3.667835,2.260976 -5.675796,6.32005 -6.974659,10.2836438 -1.812231,5.1060494 -2.332894,10.5885727 -2.033671,15.9760938 0.0308,5.4606594 -1.302802,10.7928484 -3.333467,15.8691694 -1.861905,4.554542 -4.515638,8.859054 -8.230441,12.134833 -3.423722,3.163648 -7.1263,6.007048 -10.764542,8.916076 -13.049588,10.192831 -26.807831,19.429536 -39.991345,29.437372 -3.041753,2.703243 -4.183029,6.98799 -4.0037,10.941613 0.210547,3.855086 1.385229,7.612855 3.000547,11.098998 2.322011,4.785342 5.949926,9.178509 10.864481,11.428139 5.054224,2.34345 10.638264,3.16471 16.127003,3.76446 6.875687,0.57674 13.844567,-0.0611 20.515576,-1.81134 1.934729,2.47475 4.019457,4.82665 6.167968,7.11719 -11.126927,10.55439 -23.447332,19.75372 -35.968653,28.60659 -4.144566,2.86638 -8.457628,5.48319 -12.632956,8.30025 -3.485981,2.60267 -6.372597,6.50025 -6.580815,10.97658 -0.235375,4.64995 2.395826,9.17221 6.291242,11.62625 3.930973,2.80337 8.529729,4.43363 13.029857,6.06906 3.510273,1.14244 7.123916,1.96037 10.777341,2.48182 -0.665409,4.03036 0.252378,8.1294 1.509518,11.95043 1.993037,5.1275 6.081326,9.00397 9.960378,12.74174 3.848029,3.63607 7.958207,6.98368 12.168776,10.18869 -7.435532,7.66365 -13.993602,16.16689 -22.164021,23.1019 -4.848273,4.2804 -10.138925,8.00478 -14.995242,12.28718 -2.954913,2.714 -5.780693,5.92632 -6.74727,9.91949 -0.763686,3.60077 0.367382,7.45788 2.735455,10.23781 3.805601,5.9682 5.540487,12.96055 9.305801,18.95456 2.603282,4.27731 6.250892,7.98861 10.756224,10.24444 5.683682,2.98092 12.171671,3.9822 18.518416,4.22218 4.258684,0.0889 8.574538,-0.79874 12.312269,-2.88151 6.545314,-3.30482 11.929071,-8.39583 17.288291,-13.30228 4.04666,-3.79377 7.99235,-7.69337 11.90414,-11.62557 3.18968,0.10268 6.36496,0.57417 9.49,1.30723 7.5289,1.73977 14.86472,4.21525 22.15403,6.75644 4.54573,1.61683 9.08534,3.25436 13.58732,5.01261 4.45967,2.05542 8.28248,5.15828 11.93434,8.33315 4.97811,4.24556 9.79686,8.84595 15.67635,11.841 5.72027,2.93041 12.34144,3.31217 18.6432,2.86177 9.05944,-0.66087 18.04197,-2.54447 26.5704,-5.6715 3.47474,-1.36042 6.6827,-3.70764 8.47474,-7.04524 2.90632,-4.92448 3.59165,-10.74275 4.02592,-16.33845 0.53868,-8.46971 0.26953,-16.96402 0.15251,-25.44311 -0.30773,-14.41531 -0.79086,-28.83434 -1.94062,-43.20915 -0.33036,-3.69916 -0.70255,-7.45678 -1.4303,-11.06881 3.12487,-0.49017 6.25916,-1.01064 9.38867,-1.29883 0.49457,6.33555 3.80938,12.09722 7.96699,16.76191 3.90319,4.52959 8.33922,8.696 11.28043,13.96506 5.91085,9.42411 10.48068,19.57569 14.72313,29.81626 2.21363,5.31978 5.04748,10.38087 8.51923,14.98336 5.71865,7.67391 12.9657,14.32955 21.48894,18.75699 6.25709,3.11862 13.62233,4.39804 20.45781,2.59267 9.30999,-2.21687 17.392,-8.43658 22.65332,-16.34109 2.99768,-4.62584 4.58068,-10.23279 4.00659,-15.74756 -0.50099,-8.29787 -3.58205,-16.19499 -7.33995,-23.52212 -5.56363,-10.59 -13.34047,-19.84455 -21.864,-28.17063 -2.08725,-2.09485 -4.20193,-4.16346 -6.38077,-6.16321 5.7983,-0.51161 11.78742,-1.95427 16.41102,-5.6704 5.12001,-4.11471 8.45425,-10.67683 7.9132,-17.31788 -0.24933,-3.5521 -1.43531,-6.96905 -2.95703,-10.16406 10.03493,-1.33158 19.98026,-3.87409 29.15576,-8.2065 4.63408,-2.48601 8.75205,-6.52411 10.16814,-11.71019 1.39919,-5.49296 -1.10818,-11.52866 -5.57992,-14.87674 -3.89981,-3.26521 -8.55135,-5.43678 -12.68273,-8.37516 -21.37998,-13.81387 -42.45132,-28.10058 -63.72727,-42.079459 6.21152,-1.592332 12.5931,-2.252747 18.93666,-3.071821 5.22066,-0.659545 10.65856,-0.953798 15.46695,-3.297692 8.77018,-4.280193 14.99549,-13.661558 14.91483,-23.5004 C 358.554,53.108275 355.13965,42.291872 350.69897,32.182346 343.55045,16.143372 332.6534,1.6501917 318.61268,-8.9812481 310.52395,-15.209195 301.62689,-20.492492 292.02041,-24.006359 c -4.38872,-1.505204 -9.01735,-2.428934 -13.67275,-2.292469 z M 152.11328,37.574219 c 1.48899,0.247424 2.94173,0.466734 4.41406,0.757812 -1.56644,1.618494 -3.13122,3.23635 -4.70117,4.851563 -0.66922,-0.622845 -1.37247,-1.208451 -2.07422,-1.794922 0.65914,-1.249994 1.19532,-2.568467 1.54883,-3.9375 0.27083,0.04102 0.54167,0.08203 0.8125,0.123047 z m 122.37891,22.013672 c -1.58058,1.088854 -3.17209,2.165317 -4.71485,3.308593 -0.29932,-0.363972 -1.02294,-0.808133 -1.06325,-1.11684 2.39699,-0.944617 4.75463,-1.98666 7.08669,-3.080425 -0.4362,0.296224 -0.87239,0.592448 -1.30859,0.888672 z m -69.20313,17.248047 c 4.25187,7.035845 9.31962,13.561696 14.94532,19.550781 -14.02463,2.655565 -27.68025,6.923421 -41.30482,11.085221 -0.72619,0.26195 -1.28996,0.42204 -0.45828,-0.29299 9.17351,-10.040191 18.02934,-20.379058 26.34708,-31.137934 0.1569,0.264974 0.3138,0.529948 0.4707,0.794922 z m -85.16601,87.785152 c 1.17527,0.95481 2.42498,1.8136 3.70898,2.61524 -3.90293,0.80337 -7.78891,1.61537 -11.69726,2.38281 2.61988,-1.66537 5.18428,-3.41812 7.69531,-5.24414 0.0977,0.082 0.19531,0.16406 0.29297,0.24609 z m 51.46484,60.2461 c 0.28378,5.33329 0.28788,10.67715 0.38381,16.01614 0.0424,4.3239 0.0468,8.64811 0.0224,12.97214 -3.58003,0.623 -7.23475,0.39842 -10.85062,0.54671 -10.56911,0.21751 -21.13957,0.77049 -31.64743,1.94352 1.8961,-8.48737 2.23408,-17.29805 1.22266,-25.92773 8.18721,-0.63856 16.40121,-1.2953 24.44694,-3.0065 5.47104,-1.02756 10.90534,-2.2409 16.34603,-3.41928 0.0254,0.29166 0.0508,0.58333 0.0762,0.875 z" />
      <path
         id="path12849"
         style="fill:#000000;fill-opacity:0.738095;stroke:none;stroke-width:0.264583px;stroke-linecap:butt;stroke-linejoin:miter;stroke-opacity:1"
         d="m 279.95914,-18.406628 c -1.81128,-0.0061 -3.41283,0.275278 -4.74493,0.8816 -7.61265,3.464968 -5.63491,9.3113354 -7.97161,15.1530798 -2.3367,5.8417443 -17.40452,14.8272362 -35.16323,24.3344312 -2.37618,1.272101 -4.40988,2.593599 -6.17016,3.940845 -0.33808,-2.764737 -1.40033,-5.656048 -3.2706,-8.962243 C 216.77213,6.5705222 204.05127,-5.7062909 194.014,-9.9311766 c -8.96112,-3.7719134 -19.27753,-6.4255124 -28.04015,-2.3362914 -8.76262,4.0892206 -15.99504,13.3078556 -29.79301,17.5250282 -1.24658,0.3809995 -2.42276,0.6812465 -3.56516,0.9585979 -1.12188,-1.7581092 -2.27505,-3.4603015 -3.44475,-5.047754 -8.17844,-11.0993142 -21.43361,-17.0312661 -25.70386,-14.0203331 -3.0211,2.130161 -5.478736,11.89720469 -5.086513,15.949931 0.948574,9.801253 -2.507673,23.189724 -9.517763,32.536515 -7.010093,9.34679 -39.853052,31.62273 -55.08346,42.851646 -4.383071,3.231504 0.473927,17.890588 7.765417,20.823536 9.388308,3.776381 21.614164,4.089281 32.129303,1.168401 1.109552,-0.30821 2.389489,-0.882865 3.787884,-1.651059 4.040513,5.831909 9.538377,11.904549 14.720548,16.768489 -3.148795,3.03112 -6.000646,5.76739 -7.993311,7.66516 -12.267663,11.68349 -37.764664,29.99937 -44.190583,33.50442 -6.425919,3.50505 -9.976018,8.67742 -1.097608,13.16508 8.626951,4.36055 18.163484,7.14475 33.923512,6.28386 15.772709,-0.86157 32.778914,-10.99897 44.462404,-19.76159 0.9691,-0.72682 2.26967,-1.80676 3.70727,-3.03495 2.23679,4.84363 7.28891,7.37111 11.68145,9.56737 5.84174,2.92087 39.13989,-4.08954 53.16007,-7.01042 12.57826,-2.62047 64.16233,-13.69813 88.47521,-16.37213 3.20894,2.95095 6.17519,5.54706 8.72299,7.56543 -13.95023,0.78541 -29.23116,4.52174 -46.95941,7.05435 -24.53532,3.50505 -80.03152,14.60432 -112.16111,21.03024 -19.86193,4.6734 -39.139773,7.00985 -50.823259,5.8415 -11.683487,-1.16835 -9.931122,4.67337 -8.762772,10.51512 1.139936,5.69969 14.515057,16.94639 27.644309,26.17205 -7.55527,5.18679 -14.954652,16.25675 -27.059848,27.57248 -10.60038,9.90905 -25.11998,17.52501 -21.030757,22.78258 4.08922,5.25756 5.011224,10.05027 9.347231,18.69344 5.328441,10.62144 14.291331,12.06106 24.222294,12.64521 9.930966,0.58417 21.34321,-12.06077 33.610872,-23.74427 1.33991,-1.27611 2.54711,-2.67795 3.63285,-4.17753 1.35366,0.0577 2.8646,0.0884 4.54546,0.0884 11.09931,0 32.71386,8.17801 45.5657,12.8514 12.85183,4.67341 22.19833,18.6936 32.1293,22.19864 9.93096,3.50504 31.3006,-1.49455 37.97132,-4.67309 5.77088,-2.74977 6.42597,-14.00715 6.42597,-26.87225 0,-15.78353 -1.168,-59.00145 -3.5047,-67.17989 -0.69126,-2.41941 -2.25828,-4.63306 -4.61212,-6.70398 12.61575,-2.87141 23.06423,-4.14098 32.06006,-4.38216 -5.82688,8.75755 0.0123,16.93219 8.18658,25.10648 8.17845,8.17844 18.10916,28.62441 22.7826,40.89207 4.67339,12.26766 17.52563,27.45615 30.37747,31.54536 12.85182,4.08922 25.70356,-5.84192 30.37695,-15.18872 4.67341,-9.34678 -2.46647,-33.26252 -25.70385,-54.91242 -9.36662,-10.40735 -22.32284,-18.71982 -34.33228,-23.97477 1.88087,0.4336 3.74176,0.87739 5.57228,1.32809 20.65872,5.08647 34.67421,3.57537 39.85956,-1.30431 9.07143,-8.53666 2.92055,-16.35655 -1.75286,-25.70334 -0.37732,-0.75468 -0.85905,-1.54679 -1.41851,-2.3611 0.279,0.009 0.5615,0.0243 0.83457,0.0243 15.18854,0 32.12928,-5.25796 37.38687,-8.17883 5.25756,-2.92087 11.0993,-9.34676 0,-15.77268 -11.09932,-6.42592 -65.42728,-43.22886 -81.78416,-53.744007 -0.93396,-0.6004 -1.93135,-1.282229 -2.97138,-2.021064 2.15934,-1.406184 4.46876,-2.753233 7.06054,-3.820441 9.93098,-4.08922 24.53513,-5.257614 34.46611,-6.425964 9.93097,-1.168347 16.33855,-9.728684 16.49253,-17.672823 0.27133,-13.996947 -7.72969,-36.071534 -22.33403,-53.596767 -12.77882,-15.3345785 -35.73621,-29.462688 -48.41513,-29.505692 z M 143.05535,28.312483 c 12.18809,1.497621 27.47361,3.627453 26.0749,7.599537 -0.82249,2.33571 -8.05839,8.76173 -17.14831,18.65054 -3.64082,-4.103296 -8.14215,-8.24909 -13.16354,-11.391551 2.68091,-3.193423 4.58079,-6.052336 4.9568,-8.120436 0.30286,-1.665726 0.0124,-4.002296 -0.71985,-6.73809 z m 151.5003,10.277408 c 0.39386,0.01984 0.72149,0.367054 1.10485,1.133782 1.75254,3.505047 -0.58423,8.178533 -1.1684,12.851929 -0.58418,4.673396 -15.1883,12.851686 -22.78259,18.693432 -0.83402,0.641556 -1.63485,1.29178 -2.41019,1.948201 -5.65662,-5.089226 -11.23742,-10.297819 -16.35145,-15.159281 11.06261,-1.594218 20.51618,-7.174108 29.27677,-11.323857 8.67135,-4.107476 10.92443,-8.215069 12.33101,-8.144206 z m -88.33826,22.436357 c 5.27081,12.959781 13.37448,23.553195 21.67878,31.857487 2.1837,2.183699 5.40572,5.517517 8.98705,9.230445 -9.18597,0.42574 -19.19666,2.86175 -27.68048,4.78989 -11.60244,2.63691 -36.05853,11.46168 -56.17797,15.73185 17.00898,-17.43948 35.97085,-38.33916 48.5836,-55.456043 1.61566,-2.192631 3.13556,-4.211079 4.60902,-6.153629 z m -91.00272,5.367115 c 3.90943,5.581552 8.52249,10.51619 12.87415,13.942301 -3.42801,3.45898 -7.01017,7.039978 -10.75386,10.74043 -3.56056,-5.7188 -7.59458,-11.40605 -11.4298,-15.731339 3.55621,-3.384024 6.74834,-6.489888 9.30951,-8.951392 z m 61.91767,148.220927 c 1.12754,2.54446 2.02647,5.1961 2.27738,7.9561 0.58418,6.42592 0.58446,25.70368 0.58446,32.71377 0,7.01008 -8.17846,7.00991 -16.94108,7.00991 -7.97974,0 -32.42588,0.9703 -45.11353,3.79045 5.76931,-11.83963 6.1485,-26.96576 4.80539,-35.91976 -0.38568,-2.57121 -1.16307,-4.78532 -2.25774,-6.66988 5.28261,-0.52292 10.70307,-1.30197 16.27756,-1.50843 7.88422,-0.29201 22.92139,-3.35757 40.36756,-7.37216 z"
         sodipodi:nodetypes="sssscsssscsssssssccssssscssccscsscssssscssssssccssssccssscsssscssssscsccscscssccsscscscscccccccssscscsc" />
    </g>
  </g>
</svg>
