<?xml version="1.0" encoding="UTF-8" standalone="no"?>
<!-- Created with Inkscape (http://www.inkscape.org/) -->

<svg
   xmlns:dc="http://purl.org/dc/elements/1.1/"
   xmlns:cc="http://creativecommons.org/ns#"
   xmlns:rdf="http://www.w3.org/1999/02/22-rdf-syntax-ns#"
   xmlns:svg="http://www.w3.org/2000/svg"
   xmlns="http://www.w3.org/2000/svg"
   xmlns:sodipodi="http://sodipodi.sourceforge.net/DTD/sodipodi-0.dtd"
   xmlns:inkscape="http://www.inkscape.org/namespaces/inkscape"
   width="1in"
   height="1in"
   viewBox="0 0 90 90"
   id="svg4516"
   version="1.1"
   inkscape:version="0.91 r13725"
   sodipodi:docname="hachiko-laser.svg">
  <defs
     id="defs4518" />
  <sodipodi:namedview
     id="base"
     pagecolor="#ffffff"
     bordercolor="#666666"
     borderopacity="1.0"
     inkscape:pageopacity="0.0"
     inkscape:pageshadow="2"
     inkscape:zoom="3.959798"
     inkscape:cx="-61.596142"
     inkscape:cy="31.943355"
     inkscape:document-units="px"
     inkscape:current-layer="layer19"
     showgrid="false"
     units="in"
     inkscape:window-width="1680"
     inkscape:window-height="1005"
     inkscape:window-x="0"
     inkscape:window-y="1"
     inkscape:window-maximized="1"
     inkscape:snap-nodes="false" />
  <metadata
     id="metadata4521">
    <rdf:RDF>
      <cc:Work
         rdf:about="">
        <dc:format>image/svg+xml</dc:format>
        <dc:type
           rdf:resource="http://purl.org/dc/dcmitype/StillImage" />
        <dc:title></dc:title>
      </cc:Work>
    </rdf:RDF>
  </metadata>
  <g
     inkscape:groupmode="layer"
     id="layer19"
     inkscape:label="Drawing"
     style="display:inline"
     transform="translate(0,-900)">
    <path
       style="color:#000000;clip-rule:nonzero;display:inline;overflow:visible;visibility:visible;opacity:1;isolation:auto;mix-blend-mode:normal;color-interpolation:sRGB;color-interpolation-filters:linearRGB;solid-color:#000000;solid-opacity:1;fill:#000000;fill-opacity:1;fill-rule:nonzero;stroke:#ff0000;stroke-width:0.35433072;stroke-linecap:butt;stroke-linejoin:miter;stroke-miterlimit:4;stroke-dasharray:none;stroke-dashoffset:0;stroke-opacity:1;color-rendering:auto;image-rendering:auto;shape-rendering:auto;text-rendering:auto;enable-background:accumulate"
       d="m -166.2217,936.97284 c 0.0667,2.89653 0.20336,6.32321 0.62939,9.18901 0.46741,3.14418 0.58056,5.79317 0.62938,8.6855 0.0433,2.56352 -3.73915,16.89862 -6.79735,21.52492 -0.40886,0.61851 -2.64155,-0.0738 -4.15393,1.51053 -1.314,1.37654 -0.56645,3.96512 -0.50351,4.78332 2.4546,0.44057 4.9092,0.44056 8.30787,0.18881 1.25115,-1.90132 5.98016,-14.43516 10.13229,-21.65794 1.88385,1.68121 3.22529,2.14509 5.16285,3.64208 -2.47804,1.06989 -2.37014,2.88752 -2.51864,3.9806 -0.31667,2.33083 1.22679,4.84539 2.45459,6.10503 1.42348,1.46038 2.95811,1.88815 3.96512,2.83223 -2.64341,-0.50352 -5.26337,-0.13455 -6.54559,0.75525 -1.51987,1.05471 -1.6364,2.83223 -1.69934,4.40569 2.64342,0.25176 4.09521,0.20122 6.67147,0.18881 6.52731,-0.0314 12.65062,0.063 16.99337,-0.56643 l 0.25175,-3.65043 3.14692,-1.25877 c 0,0 3.6276,1.85419 6.04209,1.51052 2.60347,-0.37058 5.65023,-0.72843 8.43374,-4.15394 2.23337,-2.7485 3.03135,-6.20927 2.39166,-9.69251 -0.65542,-3.56887 -2.51795,-6.41759 -5.53858,-7.80436 -2.39762,-1.10075 -8.93725,-1.6364 -10.57365,5.91621 4.65744,-1.88815 7.26669,-1.31289 7.0491,3.02104 -0.17711,3.52787 -3.27279,3.02104 -3.27279,3.02104 0,0 -0.52051,-4.58017 -1.25877,-7.30085 -1.19908,-4.41892 -2.47996,-7.23901 -4.97661,-11.07716 -2.79552,-4.29763 -7.00654,-8.99288 -10.68687,-12.61189 -3.44965,-3.39217 -5.04449,-6.2079 -6.49084,-9.92005 -1.03427,-2.65452 -2.68122,-7.49616 -3.90218,-10.07015 -1.54934,-3.26629 -2.95304,-6.0452 -6.79734,-9.06313 l 0,6.16797 c 0,0 -2.37817,-0.21835 -3.90218,0.37763 -2.25284,0.88098 -2.62815,2.66501 -3.76104,3.42027 -1.91869,0.48191 -7.77732,0.73101 -8.1209,1.10496 -0.41489,0.45158 0.0867,4.50725 1.14052,5.88066 0.82263,1.07213 4.78572,0.98148 6.47688,2.31661 0.62305,1.24611 1.50807,3.39246 1.62112,8.29892 z"
       id="path12322"
       inkscape:connector-curvature="0"
       sodipodi:nodetypes="sssssccccsscscscccsssscscsssssccscsscs" />
    <path
       sodipodi:nodetypes="sssssccccsscscscccsssscscsssssccscsscs"
       inkscape:connector-curvature="0"
       id="path12411"
       d="m 40.7321,757.52625 c 0.10452,4.53606 0.31847,9.90236 0.98563,14.39029 0.73199,4.9239 0.9092,9.07232 0.98564,13.60179 0.0678,4.01456 -5.85564,26.4638 -10.64487,33.70876 -0.64029,0.9686 -4.13676,-0.11564 -6.5052,2.36553 -2.05777,2.1557 -0.88707,6.20952 -0.78851,7.49084 3.84398,0.68995 7.68796,0.68994 13.0104,0.29568 1.95935,-2.97752 9.36513,-22.60594 15.86751,-33.91705 2.95017,2.63282 5.0509,3.35927 8.08519,5.70361 -3.88069,1.67549 -3.71172,4.52196 -3.94428,6.23376 -0.49591,3.65016 1.9212,7.58803 3.84398,9.56068 2.22921,2.287 4.63249,2.9569 6.20951,4.43536 -4.13967,-0.78852 -8.24261,-0.2107 -10.25062,1.18275 -2.38016,1.65172 -2.56265,4.43537 -2.66121,6.89946 4.13967,0.39426 6.41323,0.31512 10.44774,0.29569 10.22197,-0.0492 19.8113,0.0986 26.61218,-0.88706 l 0.39426,-5.7167 4.92818,-1.97127 c 0,0 5.68093,2.90373 9.46211,2.36552 4.07712,-0.58034 8.84846,-1.14074 13.20752,-6.5052 3.49754,-4.30424 4.7472,-9.72392 3.74543,-15.1788 -1.02641,-5.58896 -3.94321,-10.05016 -8.67361,-12.22189 -3.75476,-1.72381 -13.99603,-2.56265 -16.55868,9.26499 7.2937,-2.95691 11.37987,-2.05604 11.03912,4.73105 -0.27737,5.52477 -5.12531,4.73105 -5.12531,4.73105 0,0 -0.81514,-7.1727 -1.97127,-11.43338 -1.87779,-6.92018 -3.88371,-11.33652 -7.79353,-17.3472 -4.37789,-6.73023 -10.97248,-14.08316 -16.73601,-19.75065 -5.40226,-5.31226 -7.89983,-9.72178 -10.16486,-15.53513 -1.6197,-4.15706 -4.19889,-11.73924 -6.11095,-15.77019 -2.42632,-5.11511 -4.62456,-9.46698 -10.64487,-14.19316 l 0,9.65924 c 0,0 -3.72429,-0.34194 -6.11095,0.59138 -3.52801,1.37965 -4.11576,4.1735 -5.8899,5.35626 -3.00475,0.75469 -12.17955,1.14479 -12.71761,1.73042 -0.64973,0.70717 0.13584,7.05849 1.7861,9.20929 1.28827,1.67899 7.49459,1.53704 10.143,3.62789 0.97573,1.95146 2.3617,5.31272 2.53874,12.99639 z"
       style="color:#000000;clip-rule:nonzero;display:inline;overflow:visible;visibility:visible;opacity:1;isolation:auto;mix-blend-mode:normal;color-interpolation:sRGB;color-interpolation-filters:linearRGB;solid-color:#000000;solid-opacity:1;fill:#000000;fill-opacity:1;fill-rule:nonzero;stroke:none;stroke-width:5;stroke-linecap:butt;stroke-linejoin:miter;stroke-miterlimit:4;stroke-dasharray:none;stroke-dashoffset:0;stroke-opacity:1;color-rendering:auto;image-rendering:auto;shape-rendering:auto;text-rendering:auto;enable-background:accumulate" />
    <path
       style="color:#000000;clip-rule:nonzero;display:inline;overflow:visible;visibility:visible;opacity:1;isolation:auto;mix-blend-mode:normal;color-interpolation:sRGB;color-interpolation-filters:linearRGB;solid-color:#000000;solid-opacity:1;fill:none;fill-opacity:1;fill-rule:evenodd;stroke:#000000;stroke-width:5;stroke-linecap:butt;stroke-linejoin:miter;stroke-miterlimit:4;stroke-dasharray:none;stroke-dashoffset:0;stroke-opacity:1;color-rendering:auto;image-rendering:auto;shape-rendering:auto;text-rendering:auto;enable-background:accumulate"
       d="m -56.89964,714.97955 0.25254,8.83884 c 0,0 -5.34823,-0.2257 -7.57615,1.01015 -2.19607,1.21818 -4.79822,5.80838 -4.79822,5.80838 l -13.13199,1.51523 c 0,0 0.55363,8.2418 3.283,10.85914 2.1957,2.10557 8.83883,2.27284 8.83883,2.27284 0,0 6.64555,26.71969 5.30331,40.15356 -1.21216,12.13196 -11.8693,34.59773 -11.8693,34.59773 0,0 -4.82644,0.0634 -6.06091,1.76776 -1.48219,2.04641 0.25254,7.57615 0.25254,7.57615 l 67.17514,0 5.80838,-7.07107 c 0,0 7.40808,2.69534 11.11168,2.02031 4.34602,-0.79211 8.7261,-3.27513 11.36421,-6.81853 2.64577,-3.55368 5.34761,-9.89867 3.283,-15.65737 -2.12798,-5.93548 -7.34873,-11.81733 -15.15229,-11.36422 2.82971,6.52394 4.32684,13.63701 1.26269,15.15229 -2.91038996,1.43924 -6.56599,-1.51522 -6.56599,-1.51522 -1.26269,-9.59645 -11.24681,-27.46023 -16.92006,-34.85027 -5.18946,-6.75985 -15.65736,-19.44544 -15.65736,-19.44544 0,0 -6.32375,-12.95658 -7.82869,-20.20304 -1.42751,-6.87365 -12.37436,-14.64722 -12.37436,-14.64722 z"
       id="path12413"
       inkscape:connector-curvature="0"
       sodipodi:nodetypes="ccsccscscscccssscscscsc" />
    <path
       style="color:#000000;clip-rule:nonzero;display:inline;overflow:visible;visibility:visible;opacity:1;isolation:auto;mix-blend-mode:normal;color-interpolation:sRGB;color-interpolation-filters:linearRGB;solid-color:#000000;solid-opacity:1;fill:#000000;fill-opacity:1;fill-rule:nonzero;stroke:#ff0000;stroke-width:0.35433072;stroke-linecap:butt;stroke-linejoin:miter;stroke-miterlimit:4;stroke-dasharray:none;stroke-dashoffset:0;stroke-opacity:1;color-rendering:auto;image-rendering:auto;shape-rendering:auto;text-rendering:auto;enable-background:accumulate"
       d="m 34.074219,907.26339 0,6.16797 c 0,0 -2.378334,-0.21903 -3.902344,0.37695 -2.25284,0.88098 -2.628829,2.66467 -3.761719,3.41993 -1.91869,0.48191 -7.777513,0.73151 -8.121094,1.10546 -0.414889,0.45159 0.0868,4.50745 1.140626,5.88086 0.82263,1.07213 4.785402,0.98128 6.476562,2.31641 0.62305,1.24611 1.508044,3.39237 1.621094,8.29883 0.0667,2.89653 0.204829,6.32365 0.630859,9.18945 0.46741,3.14418 0.580086,5.79322 0.628906,8.68555 0.0433,2.56352 -3.738675,16.89909 -6.796875,21.52539 -0.40886,0.61851 -2.641916,-0.0746 -4.154296,1.50976 -1.314,1.37654 -0.566847,3.96501 -0.503907,4.78321 2.4546,0.44057 4.909924,0.4412 8.308594,0.18945 1.25115,-1.90132 5.978729,-14.43542 10.130859,-21.6582 1.88385,1.68121 3.226503,2.14559 5.164063,3.64258 -2.47804,1.06989 -2.371031,2.88739 -2.519531,3.98046 -0.31667,2.33083 1.227278,4.84388 2.455078,6.10352 1.42348,1.46038 2.957833,1.88991 3.964844,2.83398 -2.643411,-0.50351 -5.262702,-0.13589 -6.544922,0.75391 -1.51987,1.05471 -1.636279,2.83279 -1.699219,4.40625 2.64342,0.25176 4.095615,0.20186 6.671875,0.18945 6.52731,-0.0314 12.649437,0.063 16.992187,-0.5664 l 0.251953,-3.65039 3.146485,-1.25977 c 0,0 3.628479,1.85344 6.042969,1.50977 2.60347,-0.37058 5.650083,-0.72684 8.433593,-4.15235 2.23337,-2.7485 3.030315,-6.21012 2.390625,-9.69336 -0.65542,-3.56887 -2.516479,-6.41791 -5.537109,-7.80468 -1.866091,-0.85673 -6.231886,-1.35145 -8.851563,2.02343 -1.010652,-3.02847 -2.219791,-5.42736 -4.18164,-8.44336 -2.79552,-4.29763 -7.00717,-8.99231 -10.6875,-12.61132 -3.44965,-3.39217 -5.043885,-6.20778 -6.490234,-9.91993 -1.03427,-2.65452 -2.681384,-7.49632 -3.902344,-10.07031 -1.54934,-3.26629 -2.952575,-6.04457 -6.796875,-9.0625 z m 34.669922,52.98438 c 1.882375,0.0885 2.850837,1.3284 2.714843,4.03711 -0.17711,3.52787 -3.273437,3.02148 -3.273437,3.02148 0,0 -0.479577,-4.13316 -1.164063,-6.87891 0.636505,-0.13736 1.215265,-0.20353 1.722657,-0.17968 z"
       id="path4138"
       inkscape:connector-curvature="0" />
    <path
       sodipodi:nodetypes="sssssccccsscscscccsssscscsssssccscsscs"
       inkscape:connector-curvature="0"
       id="path4141"
       d="m -86.2217,936.97284 c 0.0667,2.89653 0.20336,6.32321 0.62939,9.18901 0.46741,3.14418 0.58056,5.79317 0.62938,8.6855 0.0433,2.56352 -3.73915,16.89862 -6.79735,21.52492 -0.40886,0.61851 -2.64155,-0.0738 -4.15393,1.51053 -1.314,1.37654 -0.56645,3.96512 -0.50351,4.78332 2.4546,0.44057 4.9092,0.44056 8.30787,0.18881 1.25115,-1.90132 5.98016,-14.43516 10.13229,-21.65794 1.88385,1.68121 3.22529,2.14509 5.16285,3.64208 -2.47804,1.06989 -2.37014,2.88752 -2.51864,3.9806 -0.31667,2.33083 1.22679,4.84539 2.45459,6.10503 1.42348,1.46038 2.95811,1.88815 3.96512,2.83223 -2.64341,-0.50352 -5.26337,-0.13455 -6.54559,0.75525 -1.51987,1.05471 -1.6364,2.83223 -1.69934,4.40569 2.64342,0.25176 4.09521,0.20122 6.67147,0.18881 6.52731,-0.0314 12.65062,0.063 16.99337,-0.56643 l 0.25175,-3.65043 3.14692,-1.25877 c 0,0 3.6276,1.85419 6.04209,1.51052 2.60347,-0.37058 5.65023,-0.72843 8.43374,-4.15394 2.23337,-2.7485 3.03135,-6.20927 2.39166,-9.69251 -0.65542,-3.56887 -1.39952,-5.05698 -3.897082,-7.61496 -0.996454,-1.02055 -3.823353,-2.89909 -7.985134,-2.60695 2.763403,3.6677 4.040483,6.7575 3.197893,10.91286 -0.701968,3.46186 -3.651597,3.46298 -3.651597,3.46298 0,0 -0.52051,-4.58017 -1.25877,-7.30085 -1.19908,-4.41892 -2.47996,-7.23901 -4.97661,-11.07716 -2.79552,-4.29763 -7.00654,-8.99288 -10.68687,-12.61189 -3.44965,-3.39217 -5.04449,-6.2079 -6.49084,-9.92005 -1.03427,-2.65452 -2.68122,-7.49616 -3.90218,-10.07015 -1.54934,-3.26629 -2.95304,-6.0452 -6.79734,-9.06313 l 0,6.16797 c 0,0 -2.37817,-0.21835 -3.90218,0.37763 -2.25284,0.88098 -2.62815,2.66501 -3.76104,3.42027 -1.91869,0.48191 -7.77732,0.73101 -8.1209,1.10496 -0.41489,0.45158 0.0867,4.50725 1.14052,5.88066 0.82263,1.07213 4.78572,0.98148 6.47688,2.31661 0.62305,1.24611 1.50807,3.39246 1.62112,8.29892 z"
       style="color:#000000;clip-rule:nonzero;display:inline;overflow:visible;visibility:visible;opacity:1;isolation:auto;mix-blend-mode:normal;color-interpolation:sRGB;color-interpolation-filters:linearRGB;solid-color:#000000;solid-opacity:1;fill:#000000;fill-opacity:1;fill-rule:nonzero;stroke:#ff0000;stroke-width:0.35433072;stroke-linecap:butt;stroke-linejoin:miter;stroke-miterlimit:4;stroke-dasharray:none;stroke-dashoffset:0;stroke-opacity:1;color-rendering:auto;image-rendering:auto;shape-rendering:auto;text-rendering:auto;enable-background:accumulate" />
  </g>
</svg>
