<?xml version="1.0" encoding="UTF-8" standalone="no"?>
<!-- Created with Inkscape (http://www.inkscape.org/) -->

<svg
   xmlns:dc="http://purl.org/dc/elements/1.1/"
   xmlns:cc="http://creativecommons.org/ns#"
   xmlns:rdf="http://www.w3.org/1999/02/22-rdf-syntax-ns#"
   xmlns:svg="http://www.w3.org/2000/svg"
   xmlns="http://www.w3.org/2000/svg"
   xmlns:sodipodi="http://sodipodi.sourceforge.net/DTD/sodipodi-0.dtd"
   xmlns:inkscape="http://www.inkscape.org/namespaces/inkscape"
   width="55"
   height="60"
   viewBox="0 0 55 60"
   id="svg4516"
   version="1.1"
   inkscape:version="0.91 r13725"
   sodipodi:docname="chairman.svg">
  <defs
     id="defs4518" />
  <sodipodi:namedview
     id="base"
     pagecolor="#ffffff"
     bordercolor="#666666"
     borderopacity="1.0"
     inkscape:pageopacity="0.0"
     inkscape:pageshadow="2"
     inkscape:zoom="1.979899"
     inkscape:cx="-125.659"
     inkscape:cy="164.64415"
     inkscape:document-units="px"
     inkscape:current-layer="layer1"
     showgrid="false"
     units="px"
     inkscape:window-width="1680"
     inkscape:window-height="1005"
     inkscape:window-x="0"
     inkscape:window-y="1"
     inkscape:window-maximized="1" />
  <metadata
     id="metadata4521">
    <rdf:RDF>
      <cc:Work
         rdf:about="">
        <dc:format>image/svg+xml</dc:format>
        <dc:type
           rdf:resource="http://purl.org/dc/dcmitype/StillImage" />
        <dc:title></dc:title>
      </cc:Work>
    </rdf:RDF>
  </metadata>
  <g
     inkscape:label="Layer 1"
     inkscape:groupmode="layer"
     id="layer1"
     transform="translate(0,-140)">
    <path
       style="color:#000000;clip-rule:nonzero;display:inline;overflow:visible;visibility:visible;opacity:1;isolation:auto;mix-blend-mode:normal;color-interpolation:sRGB;color-interpolation-filters:linearRGB;solid-color:#000000;solid-opacity:1;fill:#000000;fill-opacity:1;fill-rule:evenodd;stroke:none;stroke-width:5;stroke-linecap:butt;stroke-linejoin:miter;stroke-miterlimit:4;stroke-dasharray:none;stroke-dashoffset:0;stroke-opacity:1;color-rendering:auto;image-rendering:auto;shape-rendering:auto;text-rendering:auto;enable-background:accumulate"
       d="m 28.005067,144.29877 c -4.9043,0.17515 -7.33004,3.79383 -7.83791,6.21777 -0.51427,2.45452 0.70035,7.18091 0.70035,7.18091 0,0 -6.824489,2.51924 -9.720859,4.64166 -2.4698199,1.80985 -5.9666799,4.46146 -6.3931899,7.79456 -0.26526,2.07294 1.664,3.7354 3.6785,4.29148 2.6403299,0.72884 7.6508889,-2.46639 9.1078889,-0.2628 1.43414,1.71914 -1.33117,6.53579 -3.152909,9.37068 -2.86095,4.45205 -6.8811699,13.52069 -4.4662299,13.57411 2.5012899,0.0553 9.0709289,-0.0462 13.0491889,-0.17475 1.52842,-0.0494 3.10848,-7.70719 5.03517,-7.70719 1.92669,0 3.50743,7.65779 5.03585,7.70719 3.97825,0.12859 10.5479,0.23009 13.04919,0.17475 2.41494,-0.0534 -1.60596,-9.12206 -4.46691,-13.57411 -1.82174,-2.83489 -4.58637,-7.65154 -3.15223,-9.37068 1.457,-2.20359 6.46755,0.99164 9.10788,0.2628 2.01451,-0.55608 3.9431,-2.21854 3.67784,-4.29148 -0.42652,-3.3331 -3.92338,-5.98471 -6.3932,-7.79456 -2.89637,-2.12242 -9.72085,-4.64166 -9.72085,-4.64166 0,0 1.2153,-4.72639 0.70102,-7.18091 -0.50787,-2.42394 -2.93429,-6.04262 -7.83859,-6.21777 z"
       id="path5268"
       inkscape:connector-curvature="0" />
  </g>
</svg>
